<svg width="2586" height="1024" viewBox="0 0 2586 1024" fill="none" xmlns="http://www.w3.org/2000/svg">
<g clip-path="url(#clip0_1339_944)">
<path d="M0 0H2586V1104.43H0V0Z" fill="url(#paint0_linear_1339_944)"/>
<path d="M1664.73 -16.4469L1183.8 189.448C1145.92 205.665 1132.94 241.581 1154.81 269.669L1432.47 626.29C1454.34 654.378 1502.78 664.002 1540.66 647.785L2021.59 441.89C2059.46 425.674 2072.44 389.757 2050.57 361.669L1772.91 5.04839C1751.04 -23.0399 1702.6 -32.6636 1664.73 -16.4469Z" fill="url(#paint1_linear_1339_944)"/>
<path d="M429.911 757.777L-51.0166 963.672C-88.8956 979.889 -101.874 1015.8 -80.0044 1043.89L197.659 1400.51C219.529 1428.6 267.964 1438.23 305.843 1422.01L786.771 1216.11C824.65 1199.9 837.628 1163.98 815.759 1135.89L538.095 779.272C516.226 751.184 467.79 741.56 429.911 757.777Z" fill="url(#paint2_linear_1339_944)"/>
<path d="M1115.15 464.416L634.219 670.311C596.34 686.528 583.361 722.444 605.231 750.532L882.894 1107.15C904.764 1135.24 953.199 1144.86 991.078 1128.65L1472.01 922.753C1509.89 906.536 1522.86 870.62 1500.99 842.532L1223.33 485.911C1201.46 457.823 1153.03 448.199 1115.15 464.416Z" fill="url(#paint3_linear_1339_944)"/>
</g>
<defs>
<linearGradient id="paint0_linear_1339_944" x1="-665.895" y1="-320.597" x2="2269.29" y2="2097.17" gradientUnits="userSpaceOnUse">
<stop stop-color="#461096"/>
<stop offset="1" stop-color="#7F3CE0"/>
</linearGradient>
<linearGradient id="paint1_linear_1339_944" x1="1424.26" y1="86.5006" x2="1645.37" y2="602.956" gradientUnits="userSpaceOnUse">
<stop stop-color="white" stop-opacity="0.05"/>
<stop offset="1" stop-color="#C4C4C4" stop-opacity="0"/>
</linearGradient>
<linearGradient id="paint2_linear_1339_944" x1="189.447" y1="860.724" x2="410.553" y2="1377.18" gradientUnits="userSpaceOnUse">
<stop stop-color="#C4C4C4" stop-opacity="0"/>
<stop offset="1" stop-color="white" stop-opacity="0.07"/>
</linearGradient>
<linearGradient id="paint3_linear_1339_944" x1="874.682" y1="567.363" x2="1095.79" y2="1083.81" gradientUnits="userSpaceOnUse">
<stop stop-color="#C4C4C4" stop-opacity="0"/>
<stop offset="1" stop-color="white" stop-opacity="0.07"/>
</linearGradient>
<clipPath id="clip0_1339_944">
<rect width="2586" height="1431" fill="white"/>
</clipPath>
</defs>
</svg>
