<svg width="150" height="150" viewBox="0 0 150 150" fill="none" xmlns="http://www.w3.org/2000/svg">
<circle opacity="0.1" cx="75" cy="75" r="75" fill="#CB2929"/>
<path d="M78.3515 77.0093H75.2461L67.7301 97.2171H70.7906L78.3515 77.0093Z" fill="#A52626"/>
<path d="M79.297 83.1754L89.1981 87.136L79.297 91.0514V94.1566L92.9787 88.7111V85.5609L79.297 80.0703V83.1754Z" fill="#A52626"/>
<path d="M66.7846 91.0514L56.8833 87.136L66.7846 83.1754V80.0703L53.0579 85.5609V88.7111L66.7846 94.1566V91.0514Z" fill="#A52626"/>
<path d="M47.3584 52.3821C47.3584 59.7678 47.3584 79.7574 47.3584 97.3592C47.3584 100.469 49.89 103 52.9995 103H97.135C100.245 103 102.776 100.469 102.776 97.3592C102.776 79.7576 102.776 59.7664 102.776 52.3821C102.776 49.2725 100.245 46.7432 97.135 46.7432H52.9995C49.89 46.7432 47.3584 49.2725 47.3584 52.3821ZM100.526 97.3592C100.526 99.2293 99.0051 100.75 97.135 100.75H52.9995C51.1294 100.75 49.6087 99.2293 49.6087 97.3592V58.1726H100.526V97.3592ZM100.526 52.3821V55.9223H49.6087V52.3821C49.6087 50.5142 51.1294 48.9934 52.9995 48.9934H97.135C99.0051 48.9934 100.526 50.5142 100.526 52.3821Z" fill="#A52626"/>
<path d="M79.1718 53.8611H82.0725C82.6944 53.8611 83.1977 53.3579 83.1977 52.736C83.1977 52.1141 82.6944 51.6108 82.0725 51.6108H79.1718C78.5499 51.6108 78.0466 52.1141 78.0466 52.736C78.0466 53.3579 78.5499 53.8611 79.1718 53.8611Z" fill="#A52626"/>
<path d="M85.3504 53.8611H88.2512C88.8731 53.8611 89.3763 53.3579 89.3763 52.736C89.3763 52.1141 88.8731 51.6108 88.2512 51.6108H85.3504C84.7285 51.6108 84.2253 52.1141 84.2253 52.736C84.2253 53.3579 84.7285 53.8611 85.3504 53.8611Z" fill="#A52626"/>
<path d="M91.5282 53.8611H94.429C95.0509 53.8611 95.5541 53.3579 95.5541 52.736C95.5541 52.1141 95.0509 51.6108 94.429 51.6108H91.5282C90.9063 51.6108 90.4031 52.1141 90.4031 52.736C90.4031 53.3579 90.9063 53.8611 91.5282 53.8611Z" fill="#A52626"/>
<path d="M75.9501 71.008C78.9388 71.008 81.3714 73.4406 81.3714 76.4315C81.3714 77.0534 81.8747 77.5566 82.4966 77.5566C83.1185 77.5566 83.6217 77.0534 83.6217 76.4315C83.6217 73.4406 86.0544 71.008 89.0453 71.008C89.6672 71.008 90.1704 70.5047 90.1704 69.8828C90.1704 69.2609 89.6672 68.7577 89.0453 68.7577C86.0544 68.7577 83.6217 66.325 83.6217 63.3341C83.6217 62.7122 83.1185 62.209 82.4966 62.209C81.8747 62.209 81.3714 62.7122 81.3714 63.3341C81.3714 66.325 78.9388 68.7577 75.9501 68.7577C75.3282 68.7577 74.825 69.2609 74.825 69.8828C74.825 70.5047 75.3282 71.008 75.9501 71.008ZM82.4966 67.3315C83.1339 68.3709 84.0085 69.2455 85.0479 69.8828C84.0085 70.5201 83.1339 71.3947 82.4966 72.4342C81.8615 71.3947 80.9847 70.5201 79.9452 69.8828C80.9847 69.2455 81.8615 68.3709 82.4966 67.3315Z" fill="#A52626"/>
<path d="M88.1789 65.3673C88.8821 65.3673 89.4535 65.9387 89.4535 66.6419C89.4535 67.2638 89.9567 67.767 90.5786 67.767C91.2006 67.767 91.7038 67.2638 91.7038 66.6419C91.7038 65.9387 92.2774 65.3673 92.9806 65.3651C92.9828 65.3651 92.9828 65.3651 92.985 65.3651C92.9872 65.3651 92.9872 65.3651 92.9894 65.3651C92.9916 65.3651 92.9916 65.3651 92.9916 65.3651C92.9938 65.3651 92.9938 65.3651 92.9938 65.3651H92.9959C92.9976 65.3651 92.9987 65.3651 93.0003 65.3651C93.0025 65.3651 93.0025 65.3651 93.0025 65.3651H93.0047C93.0064 65.3651 93.0075 65.3651 93.0091 65.3651C93.0113 65.3651 93.0113 65.3651 93.0135 65.3651H93.0157C93.6201 65.3453 94.1035 64.8487 94.1035 64.2421C94.1035 64.2399 94.1035 64.2399 94.1035 64.2399C94.1035 63.618 93.6003 63.1148 92.9784 63.1148C92.2752 63.1148 91.7038 62.5434 91.7038 61.8402C91.7038 61.2183 91.2006 60.7151 90.5786 60.7151C89.9567 60.7151 89.4535 61.2183 89.4535 61.8402C89.4535 62.5215 88.9151 63.0818 88.2405 63.1148C88.2207 63.1148 88.2009 63.1148 88.1811 63.1148V63.117C88.1789 63.117 88.1789 63.117 88.1767 63.117C87.557 63.117 87.0538 63.6224 87.0538 64.2421C87.0538 64.8641 87.557 65.3673 88.1789 65.3673Z" fill="#A52626"/>
</svg>
