<svg width="150" height="150" viewBox="0 0 150 150" fill="none" xmlns="http://www.w3.org/2000/svg">
<circle cx="75" cy="75" r="75" fill="#9314A8" fill-opacity="0.1"/>
<path d="M84.5505 66.1619H65.8665C64.4051 66.1619 63.0035 66.7424 61.9701 67.7758C60.9368 68.8092 60.3562 70.2108 60.3562 71.6722V80.7391C60.3562 82.2005 60.9368 83.6021 61.9701 84.6355C63.0035 85.6689 64.4051 86.2494 65.8665 86.2494H84.5505C86.0119 86.2494 87.4135 85.6689 88.4468 84.6355C89.4802 83.6021 90.0608 82.2005 90.0608 80.7391V71.6722C90.0608 70.2108 89.4802 68.8092 88.4468 67.7758C87.4135 66.7424 86.0119 66.1619 84.5505 66.1619ZM87.5475 80.7391C87.545 81.5332 87.2284 82.2941 86.6669 82.8556C86.1054 83.4171 85.3445 83.7336 84.5505 83.7361H65.8665C65.0724 83.7336 64.3116 83.4171 63.7501 82.8556C63.1886 82.2941 62.872 81.5332 62.8695 80.7391V71.6722C62.869 71.2713 62.9496 70.8745 63.1066 70.5056L74.4213 77.7326C74.6578 77.8838 74.9326 77.9642 75.2132 77.9642C75.4939 77.9642 75.7687 77.8838 76.0052 77.7326L87.3104 70.4962C87.4686 70.8679 87.5493 71.2681 87.5475 71.6722V80.7391Z" fill="#C231DA"/>
<path d="M48.4157 67.5466C46.2088 74.1896 46.5931 81.421 49.4915 87.7927C52.3898 94.1644 57.5883 99.2059 64.0458 101.908C70.5033 104.609 77.7431 104.772 84.3153 102.362C90.8876 99.9531 96.3069 95.1498 99.4882 88.9145C101.199 85.5321 102.205 81.8378 102.447 78.0551H98.4449C98.1457 82.0773 96.829 85.9574 94.6186 89.331C92.4081 92.7047 89.3765 95.4611 85.8083 97.3414C82.2401 99.2218 78.2526 100.164 74.2201 100.08C70.1877 99.9967 66.2428 98.8893 62.7558 96.8623C59.8876 95.2223 57.409 92.9799 55.4909 90.2898C52.0261 85.4973 50.4699 79.5865 51.1257 73.7093C51.7814 67.832 54.6021 62.4095 59.038 58.4986C60.7866 56.9653 62.7441 55.688 64.8518 54.705L67.0142 53.6996V56.6018C67.0145 56.7719 67.0605 56.9388 67.1475 57.085C67.2345 57.2312 67.3591 57.3514 67.5085 57.4328C67.6578 57.5143 67.8263 57.5541 67.9963 57.548C68.1663 57.542 68.3316 57.4903 68.4748 57.3985L75.5785 52.8081C75.7056 52.721 75.8096 52.6042 75.8815 52.4679C75.9533 52.3316 75.9909 52.1798 75.9909 52.0257C75.9909 51.8715 75.9533 51.7198 75.8815 51.5834C75.8096 51.4471 75.7056 51.3303 75.5785 51.2432L68.4938 46.1692C68.3516 46.0705 68.1852 46.0127 68.0125 46.0019C67.8398 45.991 67.6674 46.0277 67.5141 46.1078C67.3607 46.1879 67.2322 46.3084 67.1424 46.4563C67.0526 46.6042 67.005 46.7738 67.0047 46.9469V49.6499L66.4641 49.8301C62.2959 51.1963 58.499 53.5055 55.3686 56.5783C52.2383 59.651 49.859 63.4044 48.4157 67.5466Z" fill="#C231DA"/>
</svg>
