<svg width="41" height="41" viewBox="0 0 41 41" fill="none" xmlns="http://www.w3.org/2000/svg">
<circle opacity="0.1" cx="20.5" cy="20.5" r="20" stroke="white"/>
<path d="M23.7998 18.1997C24.9137 18.1997 25.982 18.6422 26.7696 19.4299C27.5573 20.2175 27.9998 21.2858 27.9998 22.3997V27.2997H25.1998V22.3997C25.1998 22.0284 25.0523 21.6723 24.7897 21.4098C24.5272 21.1472 24.1711 20.9997 23.7998 20.9997C23.4285 20.9997 23.0724 21.1472 22.8098 21.4098C22.5473 21.6723 22.3998 22.0284 22.3998 22.3997V27.2997H19.5998V22.3997C19.5998 21.2858 20.0423 20.2175 20.8299 19.4299C21.6176 18.6422 22.6859 18.1997 23.7998 18.1997V18.1997Z" stroke="white" stroke-linecap="round" stroke-linejoin="round"/>
<path d="M16.8 18.9004H14V27.3004H16.8V18.9004Z" stroke="white" stroke-linecap="round" stroke-linejoin="round"/>
<path d="M15.4 16.8C16.1732 16.8 16.8 16.1732 16.8 15.4C16.8 14.6268 16.1732 14 15.4 14C14.6268 14 14 14.6268 14 15.4C14 16.1732 14.6268 16.8 15.4 16.8Z" stroke="white" stroke-linecap="round" stroke-linejoin="round"/>
</svg>
