<svg version="1.1" id="Layer_1" xmlns="http://www.w3.org/2000/svg" xmlns:xlink="http://www.w3.org/1999/xlink" x="0px" y="0px"
	 width="100%" viewBox="0 0 1248 332" enable-background="new 0 0 1248 332" xml:space="preserve">
<path fill="#0B0B0B" opacity="1.000000" stroke="none" 
	d="
M277.178314,45.902256 
	C300.567932,56.823650 313.469238,75.202469 317.256866,100.059341 
	C318.429840,107.757210 318.965973,115.611092 319.062042,123.402557 
	C319.308472,143.390228 319.024445,163.383911 319.182739,183.373383 
	C319.306671,199.024185 317.271149,214.284439 310.746368,228.582306 
	C303.459717,244.549561 291.254730,255.479141 274.849060,261.819366 
	C261.588684,266.944031 247.804306,268.452637 233.758682,268.070343 
	C228.815918,267.935791 225.368164,269.412018 222.402283,273.615021 
	C216.771042,281.595154 210.536942,289.149811 204.555969,296.883270 
	C194.470825,309.923431 175.918732,310.540222 165.407608,297.853027 
	C158.852188,289.940491 152.629929,281.716949 146.772232,273.276215 
	C143.867996,269.091309 140.222092,268.385254 135.728897,268.069214 
	C123.490501,267.208405 111.115181,266.916626 99.087097,264.763031 
	C80.572372,261.447968 66.107414,251.630737 58.594429,233.702087 
	C52.489716,219.134125 50.583740,203.640900 50.470276,187.964539 
	C50.307510,165.476151 50.299637,142.984741 50.473698,120.496529 
	C50.586231,105.957603 52.432098,91.578018 58.678467,78.296082 
	C67.648674,59.222317 82.978264,47.405285 103.318436,42.676514 
	C112.791328,40.474216 122.659996,39.073517 132.369736,38.952564 
	C167.348053,38.516827 202.335236,38.725719 237.318802,38.807545 
	C250.863037,38.839222 264.087860,40.964161 277.178314,45.902256 
M176.880417,288.770386 
	C183.064941,294.043457 187.846619,294.177979 193.195633,287.981293 
	C199.681625,280.467468 205.484756,272.360931 211.521072,264.463257 
	C215.782196,258.888214 220.467163,254.664856 228.248734,254.383331 
	C238.670807,254.006287 249.222061,253.464828 259.416718,251.461563 
	C272.843964,248.823135 284.827332,243.040894 292.902313,230.958817 
	C301.249115,218.470062 304.526245,204.615402 304.667969,189.934479 
	C304.889954,166.938339 304.947601,143.935257 304.608795,120.941986 
	C304.489594,112.852043 303.663788,104.641144 301.983215,96.735786 
	C299.334869,84.278175 293.537689,73.541443 282.841309,65.674042 
	C269.699341,56.007896 254.638443,53.270271 239.050690,53.115639 
	C203.890137,52.766846 168.723526,52.947460 133.559891,53.064114 
	C127.589142,53.083923 121.554428,53.437458 115.665306,54.369793 
	C103.388924,56.313316 91.879959,60.221905 82.555336,69.045883 
	C71.990555,79.043411 66.876022,91.730247 66.066910,105.768486 
	C64.956673,125.031151 64.906120,144.362183 64.694298,163.667114 
	C64.511864,180.293076 64.110992,196.929810 67.148270,213.437637 
	C70.624931,232.333527 79.791534,246.294754 100.231262,250.335938 
	C112.370682,252.736069 124.913139,253.337006 137.314270,254.091965 
	C145.920837,254.615952 152.872086,256.787750 157.999954,264.493500 
	C163.536194,272.812866 170.124634,280.432037 176.880417,288.770386 
z"/>
<path fill="#0D0D0D" opacity="1.000000" stroke="none" 
	d="
M523.817993,218.214996 
	C517.096802,200.399384 525.670105,184.599319 544.110962,180.898392 
	C553.701782,178.973587 563.425476,177.630646 573.137695,176.411148 
	C585.129395,174.905426 588.536865,168.685654 582.971313,157.826279 
	C580.445251,152.897644 576.422241,149.690567 571.043762,148.974731 
	C559.025085,147.375137 548.127991,149.219070 540.661377,160.284698 
	C539.922241,161.380051 537.824036,162.514328 536.713806,162.230957 
	C532.772339,161.225021 528.985657,159.612671 524.719482,158.078705 
	C529.158875,147.967041 535.904236,141.360077 545.789124,138.211670 
	C558.500366,134.163010 571.278809,133.609085 583.691956,139.142838 
	C593.104614,143.338959 598.203369,151.177734 599.531067,161.208298 
	C600.357422,167.451340 600.539429,173.809448 600.591797,180.119385 
	C600.729980,196.767166 600.585022,213.417160 600.688965,230.065430 
	C600.708557,233.202774 600.306885,235.330002 596.442810,234.887222 
	C592.894653,234.480637 588.278564,235.486786 586.085693,233.600433 
	C584.248840,232.020325 585.230469,227.163666 584.842773,222.205887 
	C572.627563,237.752487 557.440613,239.601318 540.917480,234.438446 
	C533.028381,231.973389 527.164551,226.481522 523.817993,218.214996 
M563.057556,222.997620 
	C579.865601,220.625534 588.935730,205.487579 584.629333,186.807083 
	C577.956909,187.924179 571.249390,188.917923 564.597046,190.198105 
	C558.249207,191.419632 551.792114,192.439240 545.690857,194.471481 
	C539.791687,196.436401 536.871216,201.354340 536.828003,207.646362 
	C536.786316,213.717545 539.315308,218.782822 545.174377,220.529495 
	C550.599670,222.146881 556.473328,222.260147 563.057556,222.997620 
z"/>
<path fill="#0A0A0A" opacity="1.000000" stroke="none" 
	d="
M984.953369,187.949234 
	C994.396057,180.291107 1005.737793,179.681198 1016.646851,177.795166 
	C1022.542664,176.775864 1028.510620,176.180130 1034.418579,175.223114 
	C1039.199585,174.448624 1040.975220,171.413055 1040.767578,166.655930 
	C1040.301392,155.973663 1033.952881,149.362793 1023.350037,148.591980 
	C1012.117371,147.775360 1002.662659,150.745972 995.958984,160.446899 
	C995.237244,161.491348 993.142273,162.471771 992.010559,162.186676 
	C988.189087,161.224075 984.514709,159.677643 980.377075,158.210037 
	C983.306946,149.792801 988.771179,143.996658 996.030090,140.465439 
	C1009.819519,133.757233 1024.283569,133.188736 1038.559937,138.842377 
	C1048.776978,142.888458 1054.649292,151.440033 1055.025391,161.984741 
	C1055.873901,185.772873 1055.516479,209.604050 1055.630005,233.417801 
	C1055.631348,233.714310 1055.372925,234.012070 1055.107910,234.586639 
	C1050.666870,234.586639 1046.105225,234.586639 1040.878052,234.586639 
	C1040.878052,230.710403 1040.878052,226.994614 1040.878052,222.027740 
	C1039.003540,223.771561 1037.940186,224.469940 1037.259521,225.437500 
	C1026.127930,241.259903 995.503235,239.650299 983.834290,226.028900 
	C976.548218,217.523743 974.546814,195.840622 984.953369,187.949234 
M994.982239,216.387680 
	C1001.377625,225.097076 1020.228577,224.982544 1028.736694,219.627762 
	C1039.251953,213.009705 1044.080078,198.822083 1039.843018,186.411011 
	C1037.280518,187.017288 1034.735718,187.754257 1032.141479,188.208374 
	C1023.629578,189.698410 1015.054016,190.859131 1006.587463,192.565796 
	C994.013489,195.100433 988.583862,205.338211 994.982239,216.387680 
z"/>
<path fill="#060606" opacity="1.000000" stroke="none" 
	d="
M1141.508545,111.172150 
	C1141.508545,134.232468 1141.508545,156.814423 1141.508545,180.991653 
	C1144.279419,178.706985 1145.950073,177.555145 1147.352173,176.137650 
	C1158.703369,164.661972 1170.171997,153.294205 1181.227295,141.538635 
	C1184.987183,137.540802 1188.855591,135.593948 1194.276245,136.214584 
	C1197.212646,136.550766 1200.219238,136.274475 1204.177490,136.274475 
	C1203.032715,137.865738 1202.457642,138.929459 1201.643066,139.757553 
	C1190.318481,151.271362 1179.055908,162.849243 1167.548950,174.178543 
	C1164.443359,177.236145 1164.129150,179.242798 1167.030396,182.807373 
	C1179.956055,198.688553 1192.542603,214.845779 1205.247437,230.906555 
	C1205.957153,231.803589 1206.629028,232.730392 1208.222046,234.839706 
	C1202.853882,234.839706 1198.461060,234.372177 1194.212402,234.955399 
	C1188.613647,235.723923 1186.770874,231.679596 1184.163574,228.370789 
	C1174.583130,216.212769 1164.994751,204.060944 1155.406860,191.908752 
	C1154.491577,190.748535 1153.558838,189.601837 1152.354248,188.099686 
	C1148.913330,191.189148 1145.742554,193.623932 1143.140625,196.562469 
	C1141.999268,197.851410 1141.610840,200.161270 1141.579956,202.019180 
	C1141.428101,211.182739 1141.510498,220.350159 1141.510254,229.516220 
	C1141.510132,231.143143 1141.510132,232.770081 1141.510132,234.611786 
	C1136.340942,234.611786 1131.754761,234.611786 1126.889893,234.611786 
	C1126.889893,190.975433 1126.889893,147.558594 1126.889893,103.880791 
	C1131.645264,103.880791 1136.236084,103.880791 1141.508667,103.880791 
	C1141.508667,106.173935 1141.508667,108.433853 1141.508545,111.172150 
z"/>
<path fill="#090909" opacity="1.000000" stroke="none" 
	d="
M757.746704,135.532135 
	C773.629700,136.192383 785.103699,143.843948 791.663757,157.225662 
	C801.920105,178.147659 801.931030,199.491364 788.719788,219.324921 
	C778.552246,234.589218 762.909851,238.684448 745.630859,236.008652 
	C729.883789,233.570084 719.134460,223.990265 713.550781,209.182190 
	C707.441895,192.980911 707.701660,176.536224 714.262451,160.529205 
	C721.358887,143.215240 737.464478,134.124939 757.746704,135.532135 
M727.146851,203.070190 
	C728.204895,205.318817 729.073975,207.681824 730.353882,209.796127 
	C735.771545,218.745331 743.507202,223.347015 754.257202,223.240540 
	C765.036865,223.133774 772.888977,218.414871 777.749207,209.178574 
	C786.106262,193.296616 785.853638,177.159332 777.103760,161.526886 
	C768.450623,146.067261 746.233826,143.523727 734.583984,156.793747 
	C722.817505,170.196671 722.119568,185.884094 727.146851,203.070190 
z"/>
<path fill="#080808" opacity="1.000000" stroke="none" 
	d="
M475.391235,202.000351 
	C475.391205,213.123856 475.391205,223.747345 475.391205,234.577026 
	C469.945801,234.577026 465.035522,234.577026 459.442535,234.577026 
	C459.442535,195.447311 459.442535,156.578094 459.442535,117.341232 
	C445.493103,117.341232 432.220764,117.341232 418.586548,117.341232 
	C418.586548,112.759346 418.586548,108.537621 418.586548,103.957550 
	C450.988708,103.957550 483.397400,103.957550 516.178711,103.957550 
	C516.178711,108.087227 516.178711,112.331406 516.178711,117.308090 
	C510.616577,117.308090 504.861603,117.308044 499.106659,117.308090 
	C492.777039,117.308136 486.438934,117.505203 480.120972,117.233948 
	C476.375580,117.073143 475.295532,118.321053 475.315704,122.047195 
	C475.459137,148.530930 475.391571,175.015823 475.391235,202.000351 
z"/>
<path fill="#090909" opacity="1.000000" stroke="none" 
	d="
M930.877014,142.000031 
	C930.877014,173.114700 930.877014,203.729370 930.877014,234.854401 
	C926.207397,234.854401 922.068542,235.055771 917.974792,234.714981 
	C916.931458,234.628113 915.743164,232.961960 915.157654,231.760208 
	C914.698303,230.817444 915.065857,229.471863 915.065857,228.305222 
	C915.066101,193.472748 915.066345,158.640259 915.066528,123.807785 
	C915.066589,121.855568 915.066528,119.903358 915.066528,117.447464 
	C901.043152,117.447464 887.612610,117.447464 874.020508,117.447464 
	C874.020508,112.639763 874.020508,108.341118 874.020508,103.925888 
	C906.758240,103.925888 939.344849,103.925888 972.186646,103.925888 
	C972.186646,108.346344 972.186646,112.457436 972.186646,117.102020 
	C958.649597,117.102020 945.058899,117.102020 930.877014,117.102020 
	C930.877014,125.579094 930.877014,133.539566 930.877014,142.000031 
z"/>
<path fill="#0D0D0D" opacity="1.000000" stroke="none" 
	d="
M686.109375,120.005905 
	C686.109558,156.608856 686.026123,192.713531 686.213013,228.816833 
	C686.237305,233.515656 685.131714,235.183289 680.195801,234.980759 
	C670.800842,234.595276 670.789673,234.877945 670.789673,225.301651 
	C670.789673,186.701706 670.789368,148.101761 670.789185,109.501808 
	C670.789185,107.847649 670.789246,106.193489 670.789246,104.062729 
	C675.848999,104.062729 680.700867,104.062729 686.109558,104.062729 
	C686.109558,109.293365 686.109558,114.400291 686.109375,120.005905 
z"/>
<path fill="#0C0C0C" opacity="1.000000" stroke="none" 
	d="
M870.754761,138.494263 
	C870.754578,142.557877 870.754578,146.177628 870.754578,150.036270 
	C865.595764,150.036270 860.945679,149.589737 856.411926,150.126373 
	C845.983704,151.360687 837.996582,158.989899 837.416016,169.418701 
	C836.630127,183.535568 836.907104,197.712646 836.773804,211.864319 
	C836.714233,218.194901 836.660339,224.529053 836.813171,230.856537 
	C836.885437,233.846390 835.905579,235.100327 832.796875,234.910202 
	C829.327942,234.698029 825.835999,234.861557 821.878723,234.861557 
	C821.765259,232.870804 821.594666,231.264771 821.593811,229.658646 
	C821.578552,200.335449 821.683472,171.011551 821.478760,141.689789 
	C821.447388,137.194550 822.778687,135.699005 827.124695,136.180939 
	C829.893188,136.487946 832.723389,136.238403 836.262451,136.238403 
	C836.262451,140.910324 836.262451,145.099350 836.262451,149.288376 
	C836.691589,149.424149 837.120728,149.559906 837.549866,149.695679 
	C838.362671,148.632797 839.251404,147.619110 839.976135,146.499237 
	C845.407959,138.105820 859.005432,132.496948 868.483215,135.001816 
	C869.442078,135.255219 870.007202,136.998505 870.754761,138.494263 
z"/>
<path fill="#0D0D0D" opacity="1.000000" stroke="none" 
	d="
M1098.505371,210.000183 
	C1098.505249,218.461044 1098.505249,226.421906 1098.505249,234.620758 
	C1093.279907,234.620758 1088.688599,234.620758 1083.723145,234.620758 
	C1083.723145,191.031326 1083.723145,147.638901 1083.723145,103.914566 
	C1088.496216,103.914566 1093.224121,103.914566 1098.505493,103.914566 
	C1098.505493,139.277267 1098.505493,174.388733 1098.505371,210.000183 
z"/>
<path fill="#0B0B0B" opacity="1.000000" stroke="none" 
	d="
M643.085083,151.006073 
	C643.085205,177.648804 643.006653,203.793015 643.170044,229.935730 
	C643.194702,233.880005 642.140869,235.060028 638.125854,234.960251 
	C627.977539,234.708069 627.972473,234.914337 627.972534,224.640274 
	C627.972595,196.997864 628.070312,169.354736 627.872375,141.713745 
	C627.840820,137.318100 628.988892,135.648285 633.446594,136.180328 
	C636.366638,136.528839 639.362122,136.246124 643.085083,136.246124 
	C643.085083,141.329453 643.085083,145.918274 643.085083,151.006073 
z"/>
<path fill="#0E0E0E" opacity="1.000000" stroke="none" 
	d="
M625.552673,113.029541 
	C623.992859,107.695717 625.674866,103.871948 629.911499,101.171402 
	C633.579956,98.833046 637.420105,98.824036 641.162842,101.041595 
	C644.916321,103.265533 646.834717,106.521645 646.172607,110.981216 
	C645.439636,115.918953 642.112793,118.302147 637.595215,119.407501 
	C633.092957,120.509125 629.047119,118.439117 625.552673,113.029541 
z"/>
<path fill="#FDFDFD" opacity="1.000000" stroke="none" 
	d="
M176.567261,288.563507 
	C170.124634,280.432037 163.536194,272.812866 157.999954,264.493500 
	C152.872086,256.787750 145.920837,254.615952 137.314270,254.091965 
	C124.913139,253.337006 112.370682,252.736069 100.231262,250.335938 
	C79.791534,246.294754 70.624931,232.333527 67.148270,213.437637 
	C64.110992,196.929810 64.511864,180.293076 64.694298,163.667114 
	C64.906120,144.362183 64.956673,125.031151 66.066910,105.768486 
	C66.876022,91.730247 71.990555,79.043411 82.555336,69.045883 
	C91.879959,60.221905 103.388924,56.313316 115.665306,54.369793 
	C121.554428,53.437458 127.589142,53.083923 133.559891,53.064114 
	C168.723526,52.947460 203.890137,52.766846 239.050690,53.115639 
	C254.638443,53.270271 269.699341,56.007896 282.841309,65.674042 
	C293.537689,73.541443 299.334869,84.278175 301.983215,96.735786 
	C303.663788,104.641144 304.489594,112.852043 304.608795,120.941986 
	C304.947601,143.935257 304.889954,166.938339 304.667969,189.934479 
	C304.526245,204.615402 301.249115,218.470062 292.902313,230.958817 
	C284.827332,243.040894 272.843964,248.823135 259.416718,251.461563 
	C249.222061,253.464828 238.670807,254.006287 228.248734,254.383331 
	C220.467163,254.664856 215.782196,258.888214 211.521072,264.463257 
	C205.484756,272.360931 199.681625,280.467468 193.195633,287.981293 
	C187.846619,294.177979 183.064941,294.043457 176.567261,288.563507 
M174.453125,223.960129 
	C174.585144,224.390793 174.717163,224.821457 174.805725,225.647995 
	C174.805725,225.647995 174.994949,225.998413 174.972031,226.716263 
	C176.783447,230.937073 180.344040,232.477936 184.569992,232.629730 
	C188.813309,232.782135 192.132492,230.616348 193.766083,226.909866 
	C194.852066,224.445877 194.996780,221.423416 195.003860,218.649521 
	C195.083405,187.500916 195.111786,156.351807 194.984024,125.203522 
	C194.967499,121.172958 196.059372,119.540405 200.326035,119.681816 
	C208.645432,119.957573 217.011093,120.178757 225.294861,119.569496 
	C228.926849,119.302383 233.213028,117.745705 235.681488,115.262794 
	C237.459900,113.473946 237.794876,108.816109 236.858643,106.097473 
	C235.443512,101.988190 231.446030,100.024261 226.860779,100.024605 
	C199.043411,100.026711 171.225998,100.008385 143.408737,100.064491 
	C141.439560,100.068466 139.384552,100.348579 137.519867,100.959442 
	C132.746796,102.523109 130.228012,107.169907 131.276688,111.988342 
	C132.361954,116.974869 136.326782,119.654129 143.055618,119.750900 
	C153.543625,119.901741 164.032944,119.960236 174.476913,120.986977 
	C174.483612,135.099258 174.465652,149.211609 174.502899,163.323807 
	C174.555908,183.406235 174.649490,203.488556 174.453125,223.960129 
z"/>
<path fill="#F6F6F6" opacity="1.000000" stroke="none" 
	d="
M562.603516,223.016693 
	C556.473328,222.260147 550.599670,222.146881 545.174377,220.529495 
	C539.315308,218.782822 536.786316,213.717545 536.828003,207.646362 
	C536.871216,201.354340 539.791687,196.436401 545.690857,194.471481 
	C551.792114,192.439240 558.249207,191.419632 564.597046,190.198105 
	C571.249390,188.917923 577.956909,187.924179 584.629333,186.807083 
	C588.935730,205.487579 579.865601,220.625534 562.603516,223.016693 
z"/>
<path fill="#F6F6F6" opacity="1.000000" stroke="none" 
	d="
M994.757324,216.087189 
	C988.583862,205.338211 994.013489,195.100433 1006.587463,192.565796 
	C1015.054016,190.859131 1023.629578,189.698410 1032.141479,188.208374 
	C1034.735718,187.754257 1037.280518,187.017288 1039.843018,186.411011 
	C1044.080078,198.822083 1039.251953,213.009705 1028.736694,219.627762 
	C1020.228577,224.982544 1001.377625,225.097076 994.757324,216.087189 
z"/>
<path fill="#FAFAFA" opacity="1.000000" stroke="none" 
	d="
M727.057617,202.680191 
	C722.119568,185.884094 722.817505,170.196671 734.583984,156.793747 
	C746.233826,143.523727 768.450623,146.067261 777.103760,161.526886 
	C785.853638,177.159332 786.106262,193.296616 777.749207,209.178574 
	C772.888977,218.414871 765.036865,223.133774 754.257202,223.240540 
	C743.507202,223.347015 735.771545,218.745331 730.353882,209.796127 
	C729.073975,207.681824 728.204895,205.318817 727.057617,202.680191 
z"/>
<path fill="#4069F6" opacity="1.000000" stroke="none" 
	d="
M174.521713,120.057861 
	C164.032944,119.960236 153.543625,119.901741 143.055618,119.750900 
	C136.326782,119.654129 132.361954,116.974869 131.276688,111.988342 
	C130.228012,107.169907 132.746796,102.523109 137.519867,100.959442 
	C139.384552,100.348579 141.439560,100.068466 143.408737,100.064491 
	C171.225998,100.008385 199.043411,100.026711 226.860779,100.024605 
	C231.446030,100.024261 235.443512,101.988190 236.858643,106.097473 
	C237.794876,108.816109 237.459900,113.473946 235.681488,115.262794 
	C233.213028,117.745705 228.926849,119.302383 225.294861,119.569496 
	C217.011093,120.178757 208.645432,119.957573 200.326035,119.681816 
	C196.059372,119.540405 194.967499,121.172958 194.984024,125.203522 
	C195.111786,156.351807 195.083405,187.500916 195.003860,218.649521 
	C194.996780,221.423416 194.852066,224.445877 193.766083,226.909866 
	C192.132492,230.616348 188.813309,232.782135 184.569992,232.629730 
	C180.344040,232.477936 176.783447,230.937073 175.296478,226.076721 
	C175.750534,224.794312 175.993179,224.151474 175.993546,223.508514 
	C176.012955,190.300018 176.028320,157.091476 175.949814,123.883163 
	C175.946793,122.606941 175.018738,121.332909 174.521713,120.057861 
z"/>
<path fill="#0655F5" opacity="1.000000" stroke="none" 
	d="
M174.499313,120.522415 
	C175.018738,121.332909 175.946793,122.606941 175.949814,123.883163 
	C176.028320,157.091476 176.012955,190.300018 175.993546,223.508514 
	C175.993179,224.151474 175.750534,224.794312 175.307922,225.717804 
	C174.994949,225.998413 174.805725,225.647995 174.868744,225.024200 
	C174.863113,224.123917 174.794434,223.847427 174.725739,223.570923 
	C174.649490,203.488556 174.555908,183.406235 174.502899,163.323807 
	C174.465652,149.211609 174.483612,135.099258 174.499313,120.522415 
z"/>
<path fill="#4069F6" opacity="1.000000" stroke="none" 
	d="
M174.589432,223.765533 
	C174.794434,223.847427 174.863113,224.123917 174.890488,224.826263 
	C174.717163,224.821457 174.585144,224.390793 174.589432,223.765533 
z"/>
</svg>