<svg width="41" height="41" viewBox="0 0 41 41" fill="none" xmlns="http://www.w3.org/2000/svg">
<circle opacity="0.1" cx="20.5" cy="20.5" r="20" stroke="white"/>
<path d="M27.3333 15.0401C26.679 15.5017 25.9544 15.8547 25.1877 16.0856C24.7761 15.6124 24.2292 15.277 23.6208 15.1248C23.0124 14.9725 22.372 15.0108 21.7861 15.2345C21.2002 15.4581 20.6971 15.8562 20.3449 16.3751C19.9926 16.894 19.8082 17.5085 19.8167 18.1356V18.8189C18.6158 18.85 17.4259 18.5837 16.3528 18.0436C15.2798 17.5035 14.357 16.7065 13.6667 15.7234C13.6667 15.7234 10.9333 21.8734 17.0833 24.6067C15.676 25.562 13.9995 26.041 12.3 25.9734C18.45 29.3901 25.9667 25.9734 25.9667 18.1151C25.966 17.9247 25.9477 17.7349 25.912 17.5479C26.6094 16.8601 27.1016 15.9918 27.3333 15.0401V15.0401Z" stroke="white" stroke-width="1.36667" stroke-linecap="round" stroke-linejoin="round"/>
</svg>
