<svg width="873" height="625" viewBox="0 0 873 625" fill="none" xmlns="http://www.w3.org/2000/svg">
	<g opacity="0.7">
		<path d="M839.269 624.528C789.984 624.528 122.222 625.768 93.1359 624.229C93.1359 624.229 42.3091 624.998 27.8396 624.229C27.5825 623.502 -80.9753 368.664 132.394 266.72C209.296 229.96 128.208 172 181.569 108.483C242.899 35.4763 309.847 116.219 378.045 83.1356C390.091 77.2797 402.173 67.8761 414.292 53.4714C421.123 45.3501 428.578 38.2547 436.584 32.1423C437.796 31.2019 439.044 30.2616 440.293 29.3639C445.067 25.9444 450.062 22.8242 455.167 20.0458C458.619 18.1651 462.107 16.4553 465.67 14.8738C471.325 12.3519 477.128 10.172 483.077 8.33401C491.487 5.72665 500.191 3.76043 509.041 2.47812C512.898 1.87971 516.79 1.45227 520.72 1.11032C596.923 -5.51496 652.524 17.5239 698.577 69.8423C724.908 99.8057 747.237 154.646 731.556 242.741C721.603 298.692 808.787 327.502 838.828 383.624C915.105 526.26 839.966 622.647 839.269 624.528Z" fill="#EBF3FA" />
		<path d="M839.269 624.528C789.984 624.528 122.222 625.768 93.1359 624.229C93.1359 624.229 42.3091 624.998 27.8396 624.229C27.5825 623.502 -80.9753 368.664 132.394 266.72C209.296 229.96 128.208 172 181.569 108.483C242.899 35.4763 309.847 116.219 378.045 83.1356C390.091 77.2797 402.173 67.8761 414.292 53.4714C421.123 45.3501 428.578 38.2547 436.584 32.1423C437.796 31.2019 439.044 30.2616 440.293 29.3639C445.067 25.9444 450.062 22.8242 455.167 20.0458C458.619 18.1651 462.107 16.4553 465.67 14.8738C471.325 12.3519 477.128 10.172 483.077 8.33401C491.487 5.72665 500.191 3.76043 509.041 2.47812C512.898 1.87971 516.79 1.45227 520.72 1.11032C596.923 -5.51496 652.524 17.5239 698.577 69.8423C724.908 99.8057 747.237 154.646 731.556 242.741C721.603 298.692 808.787 327.502 838.828 383.624C915.105 526.26 839.966 622.647 839.269 624.528Z" fill="url(#paint0_linear_0_1)" />
	</g>
	<path d="M275.79 302.867V302.712V302.557C275.79 302.402 275.79 302.092 275.946 301.936C275.946 301.781 275.946 301.781 275.946 301.626V301.471C275.946 301.316 275.946 301.161 276.101 301.006C276.101 300.851 276.101 300.696 276.256 300.696V300.541C276.256 300.386 276.256 300.385 276.411 300.23C276.411 300.075 276.411 300.075 276.566 299.92C276.566 299.765 276.721 299.61 276.721 299.61C276.721 299.455 276.721 299.455 276.876 299.3V299.145C277.031 298.835 277.031 298.679 277.186 298.369C277.186 298.369 277.186 298.369 277.186 298.214C277.341 298.059 277.341 297.904 277.496 297.594C277.496 297.594 277.497 297.439 277.652 297.439C277.652 297.284 277.807 297.284 277.807 297.129C277.807 297.129 277.807 296.973 277.962 296.973C278.117 296.818 278.117 296.663 278.272 296.508C278.272 296.508 278.272 296.353 278.427 296.353C278.582 296.198 278.737 295.888 278.892 295.733C278.892 295.733 278.892 295.733 278.892 295.578C278.892 295.423 279.047 295.423 279.047 295.267C279.203 295.112 279.203 294.957 279.358 294.957L279.513 294.802C279.513 294.647 279.668 294.647 279.668 294.492L279.823 294.337C279.823 294.182 279.978 294.182 279.978 294.027C280.133 293.872 280.133 293.716 280.288 293.716L280.443 293.561L280.598 293.406C280.753 293.251 280.909 293.096 281.064 292.786L281.219 292.631C281.219 292.631 281.219 292.631 281.374 292.476C281.684 292.166 282.149 291.855 282.46 291.545L282.615 291.39C283.08 291.08 283.39 290.77 283.855 290.615L515.1 156.769C515.41 156.614 515.72 156.459 516.03 156.304C516.03 156.304 516.03 156.304 516.186 156.304H516.341C516.496 156.304 516.651 156.148 516.961 156.148H517.116H517.271C517.426 156.148 517.426 156.148 517.581 156.148H517.737H517.892C518.047 156.148 518.047 156.148 518.202 156.148H518.357C518.512 156.148 518.667 156.148 518.667 156.148C518.667 156.148 518.667 156.148 518.822 156.148C518.977 156.148 519.132 156.148 519.287 156.148H519.443H519.598H519.753H519.908C519.908 156.148 519.908 156.148 520.063 156.148C520.218 156.148 520.373 156.304 520.528 156.304L529.989 161.887C529.834 161.732 529.679 161.732 529.524 161.577H529.369C529.213 161.577 529.058 161.422 528.903 161.422H528.748C528.593 161.422 528.283 161.422 528.128 161.422C528.128 161.422 528.128 161.422 527.973 161.422C527.818 161.422 527.663 161.422 527.507 161.422C527.352 161.422 527.352 161.422 527.197 161.422C527.042 161.422 526.887 161.422 526.732 161.422C526.577 161.422 526.577 161.422 526.422 161.422C526.267 161.422 526.112 161.422 526.112 161.577C525.956 161.577 525.801 161.732 525.491 161.732C525.336 161.732 525.336 161.887 525.181 161.887C524.871 162.042 524.561 162.197 524.25 162.352L292.851 296.043C292.385 296.353 292.075 296.508 291.61 296.818L291.455 296.973C291.145 297.284 290.679 297.594 290.369 297.904C290.214 298.059 290.214 298.059 290.059 298.214C289.904 298.369 289.749 298.524 289.594 298.835C289.439 298.99 289.439 298.99 289.284 299.145C289.129 299.3 289.128 299.455 288.973 299.455C288.818 299.61 288.663 299.765 288.663 299.92C288.663 300.075 288.508 300.075 288.508 300.23C288.353 300.385 288.198 300.541 288.043 300.851C288.043 301.006 287.888 301.006 287.888 301.161C287.733 301.471 287.578 301.781 287.422 301.936V302.092C287.267 302.402 287.112 302.557 286.957 302.867C286.957 303.022 286.802 303.022 286.802 303.177C286.647 303.487 286.492 303.642 286.492 303.953C286.492 303.953 286.492 303.953 286.492 304.108C286.337 304.418 286.182 304.728 286.182 305.038C286.182 305.193 286.182 305.193 286.027 305.348C286.027 305.504 285.872 305.814 285.872 305.969C285.872 306.124 285.872 306.124 285.716 306.279C285.716 306.434 285.561 306.589 285.561 306.899C285.561 307.055 285.561 307.21 285.406 307.365C285.406 307.52 285.406 307.675 285.251 307.83C285.251 307.985 285.096 308.295 285.096 308.45C285.096 308.605 285.096 308.605 285.096 308.761C285.096 309.226 284.941 309.691 284.941 310.156L285.406 482.465C285.406 484.947 286.337 486.808 287.733 487.583L278.272 482C277.807 481.69 277.341 481.225 276.876 480.604C276.256 479.674 275.946 478.433 275.946 476.727L275.48 304.418C275.635 303.798 275.79 303.332 275.79 302.867Z" fill="#959CE5" />
	<path d="M524.716 162.353C529.214 159.871 532.781 161.887 532.781 167.005L533.246 339.314C533.246 344.433 529.679 350.636 525.181 353.118L293.782 486.808C289.284 489.445 285.717 487.274 285.717 482.156L285.252 309.847C285.252 304.729 288.819 298.525 293.316 296.043L524.716 162.353Z" fill="url(#paint1_linear_0_1)" />
	<path d="M524.094 166.384C525.8 165.299 527.351 166.229 527.351 168.245L527.817 340.554C527.817 342.571 526.421 345.052 524.56 346.138L301.38 475.021C299.519 476.106 298.123 475.176 298.123 473.16L297.658 300.85C297.658 298.834 299.053 296.353 300.915 295.267L524.094 166.384Z" fill="#F0EEEA" />
	<path d="M501.142 195.543C491.681 200.971 484.082 214.154 484.082 225.011C484.082 225.476 484.082 225.786 484.082 226.252L489.665 222.995C489.665 222.529 489.665 222.219 489.665 221.754C489.665 214.465 494.783 205.624 501.142 201.902C501.762 201.592 502.383 201.282 503.003 200.971V194.458C502.383 194.768 501.762 195.078 501.142 195.543Z" fill="#5A286C" />
	<path d="M502.846 194.457V200.971C508.275 198.8 512.462 201.902 512.462 208.416C512.462 215.705 507.344 224.545 500.985 228.268C494.937 231.68 490.129 229.353 489.508 222.994L483.925 226.251C484.545 236.177 491.99 239.9 500.985 234.781C510.446 229.353 518.046 216.17 518.046 205.314C518.201 195.077 511.532 190.58 502.846 194.457Z" fill="url(#paint2_linear_0_1)" />
	<path d="M501.759 248.119V254.478C502.069 254.323 502.534 254.168 502.845 254.013C508.273 251.842 512.46 254.944 512.46 261.457C512.46 268.747 507.342 277.587 500.984 281.309C498.502 282.705 496.176 283.171 494.314 282.705L490.592 289.685C493.539 290.615 497.106 289.995 500.984 287.668C510.444 282.24 518.044 269.057 518.044 258.201C518.044 248.119 511.375 243.622 502.845 247.499C502.534 247.809 502.224 247.964 501.759 248.119Z" fill="url(#paint3_linear_0_1)" />
	<path d="M501.138 248.584C491.678 254.013 484.078 267.196 484.078 278.052C484.078 278.517 484.078 278.828 484.078 279.293C484.388 284.876 487.025 288.599 490.747 289.684L494.469 282.705C491.833 282.085 489.972 279.758 489.662 276.036C489.662 275.571 489.662 275.26 489.662 274.795C489.662 267.506 494.78 258.665 501.138 254.943C501.449 254.788 501.604 254.633 501.914 254.633V248.274C501.604 248.274 501.294 248.429 501.138 248.584Z" fill="#5A286C" />
	<path d="M501.141 305.97C491.681 311.398 484.081 324.581 484.081 335.438C484.081 335.903 484.081 336.213 484.081 336.679C484.391 342.262 487.028 345.984 490.75 347.07C491.836 347.38 492.921 347.535 494.162 347.38L496.488 340.246C495.713 340.246 495.093 340.246 494.472 340.091C491.836 339.47 489.975 337.144 489.664 333.422C489.664 332.956 489.664 332.646 489.664 332.181C489.664 324.891 494.782 316.051 501.141 312.329C501.451 312.174 501.607 312.019 501.917 311.864C502.227 311.708 502.692 311.553 503.002 311.398C506.414 310.002 509.361 310.778 511.067 313.104L515.72 306.901C513.084 303.489 508.431 302.558 503.002 305.039C502.692 305.195 502.227 305.35 501.917 305.66C501.607 305.66 501.296 305.815 501.141 305.97Z" fill="#5A286C" />
	<path d="M515.564 306.746L510.911 312.949C511.997 314.345 512.617 316.361 512.617 318.843C512.617 326.132 507.499 334.973 501.14 338.695C499.434 339.625 497.883 340.091 496.487 340.246L494.161 347.38C496.332 347.225 498.659 346.45 501.14 345.054C510.601 339.625 518.201 326.442 518.201 315.586C518.201 311.864 517.27 308.917 515.564 306.746Z" fill="url(#paint4_linear_0_1)" />
	<path d="M429.798 237.728C428.867 238.349 428.092 239.59 428.092 240.675V241.606C428.092 242.691 428.867 243.157 429.798 242.536L477.101 215.24C478.032 214.619 478.807 213.379 478.807 212.293V211.362C478.807 210.277 478.032 209.812 477.101 210.432L429.798 237.728Z" fill="#C9C6F7" />
	<path d="M446.859 238.659C446.084 239.124 445.464 240.21 445.464 240.986V242.692C445.464 243.622 446.084 243.932 446.859 243.467L476.637 226.252C477.413 225.786 478.033 224.701 478.033 223.925V222.219C478.033 221.289 477.413 220.978 476.637 221.444L446.859 238.659Z" fill="#C9C6F7" />
	<path d="M429.797 285.808C428.867 286.428 428.091 287.669 428.091 288.755V289.685C428.091 290.771 428.867 291.236 429.797 290.616L477.101 263.319C478.031 262.699 478.807 261.458 478.807 260.372V259.442C478.807 258.356 478.031 257.891 477.101 258.511L429.797 285.808Z" fill="#C9C6F7" />
	<path d="M446.859 286.737C446.083 287.203 445.463 288.288 445.463 289.064V290.615C445.463 291.545 446.083 291.855 446.859 291.39L476.637 274.175C477.412 273.709 478.032 272.624 478.032 271.848V270.297C478.032 269.367 477.412 269.057 476.637 269.522L446.859 286.737Z" fill="#C9C6F7" />
	<path d="M429.797 345.673C428.867 346.294 428.091 347.535 428.091 348.62V349.551C428.091 350.636 428.867 351.102 429.797 350.481L477.101 323.34C478.031 322.72 478.807 321.479 478.807 320.393V319.463C478.807 318.377 478.031 317.912 477.101 318.532L429.797 345.673Z" fill="#C9C6F7" />
	<path d="M446.86 346.605C446.085 347.07 445.464 348.156 445.464 348.932V350.638C445.464 351.568 446.085 351.878 446.86 351.413L476.483 334.198C477.258 333.732 477.879 332.647 477.879 331.871V330.165C477.879 329.235 477.258 328.925 476.483 329.39L446.86 346.605Z" fill="#C9C6F7" />
	<g opacity="0.49">
		<path opacity="0.49" d="M408.552 351.721C408.397 351.876 408.086 352.031 407.931 352.186C392.887 362.112 400.332 397.318 384.977 406.158C384.822 406.158 384.667 406.314 384.667 406.314C384.667 406.314 384.202 406.779 383.426 407.244C380.635 408.795 373.811 410.501 372.105 389.253C371.329 379.327 367.762 377.001 363.574 379.482C356.44 383.515 347.6 401.195 347.755 417.791C347.755 427.096 344.498 432.835 340.621 435.161C334.727 438.573 327.593 434.075 328.213 421.668C328.678 412.828 325.577 410.346 321.854 412.517C316.891 415.464 310.688 426.321 309.757 441.055L308.206 460.131L430.575 389.563L429.489 380.878C428.869 378.552 423.286 343.19 408.552 351.721Z" fill="url(#paint5_linear_0_1)" />
	</g>
	<g opacity="0.49">
		<path opacity="0.49" d="M397.849 343.656C397.694 343.811 397.384 343.966 397.229 344.121C382.185 355.443 389.629 395.457 374.275 405.538C374.12 405.694 373.965 405.694 373.965 405.694C373.965 405.694 373.499 406.159 372.724 406.624C369.932 408.485 363.108 410.191 361.402 386.152C360.627 374.83 357.06 372.193 352.872 374.985C345.738 379.638 336.897 399.8 337.052 418.566C337.052 429.113 333.795 435.627 329.918 438.263C324.025 442.141 316.89 437.022 317.511 422.909C317.976 412.828 314.874 410.036 311.152 412.518C306.189 415.775 299.985 428.182 299.054 445.087L297.504 466.8L420.183 394.837L418.787 376.381C418.322 374.365 412.583 334.04 397.849 343.656Z" fill="#5A286C" />
	</g>
	<path d="M389.474 425.545V349.55" stroke="#C9C6F7" stroke-width="0.7565" stroke-miterlimit="10" />
	<path d="M340.311 454.858V399.645" stroke="#C9C6F7" stroke-width="0.7565" stroke-miterlimit="10" />
	<path d="M605.665 410.976C605.665 410.821 605.665 410.666 605.665 410.666C605.665 410.511 605.665 410.356 605.665 410.201L634.047 277.751C634.047 277.906 634.047 278.061 634.047 278.216C634.047 278.371 634.047 278.526 634.047 278.681V278.836V278.991C634.047 279.147 634.202 279.302 634.202 279.457C634.358 279.612 634.358 279.767 634.513 279.922C634.513 279.922 634.513 279.922 634.513 280.077C634.668 280.387 634.823 280.542 635.133 280.853C635.133 280.853 635.133 280.853 635.288 281.008C635.443 281.163 635.598 281.318 635.908 281.473C636.064 281.628 636.374 281.783 636.529 281.938C636.529 281.938 636.684 281.938 636.684 282.093C636.994 282.248 637.304 282.404 637.77 282.559H637.925C638.235 282.714 638.39 282.714 638.7 282.869C638.855 282.869 639.165 283.024 639.321 283.024C639.476 283.024 639.476 283.024 639.631 283.024C639.786 283.024 639.941 283.024 639.941 283.179C640.096 283.179 640.406 283.334 640.561 283.334C640.871 283.334 641.182 283.334 641.647 283.489H641.802C642.112 283.489 642.422 283.489 642.733 283.489H642.888C643.198 283.489 643.353 283.489 643.663 283.334C643.973 283.334 644.439 283.179 644.749 283.024C646.145 282.559 647.075 281.783 647.385 280.698L619.003 412.992C618.848 414.078 617.762 414.853 616.367 415.319C616.056 415.474 615.746 415.474 615.281 415.629C615.126 415.629 614.816 415.629 614.661 415.629H614.506C614.195 415.629 614.04 415.629 613.73 415.629H613.575H613.42C613.265 415.629 613.265 415.629 613.11 415.629C612.955 415.629 612.644 415.629 612.489 415.629C612.334 415.629 612.024 415.629 611.869 415.474C611.714 415.474 611.559 415.474 611.559 415.319C611.404 415.319 611.404 415.319 611.249 415.319C611.093 415.319 610.783 415.164 610.628 415.164C610.628 415.164 610.628 415.164 610.473 415.164C610.163 415.009 610.008 415.009 609.698 414.853C609.698 414.853 609.698 414.853 609.543 414.853C609.232 414.698 608.767 414.543 608.457 414.388C608.457 414.388 608.457 414.388 608.302 414.388C607.992 414.233 607.837 414.078 607.681 413.923C607.526 413.768 607.216 413.613 607.061 413.458C606.751 413.303 606.596 412.992 606.441 412.682C606.286 412.527 606.286 412.372 606.13 412.217C606.13 412.062 605.975 411.907 605.975 411.752V411.597C605.665 411.131 605.665 410.976 605.665 410.976Z" fill="url(#paint6_linear_0_1)" />
	<path d="M636.684 275.424C635.133 275.89 634.047 276.975 634.047 278.371C634.047 280.697 637.149 282.869 640.871 283.489C642.422 283.644 643.818 283.644 645.059 283.179C646.765 282.714 647.696 281.628 647.696 280.232C647.696 277.906 644.594 275.734 640.871 275.114C639.321 274.959 637.925 275.114 636.684 275.424Z" fill="#CFCDCA" />
	<path d="M640.405 243.475C640.716 243.475 641.026 243.475 641.491 243.475C641.801 243.475 641.956 243.475 642.266 243.475H642.422C642.732 243.475 643.042 243.32 643.352 243.32H643.507C643.817 243.165 644.128 243.165 644.438 243.01C644.593 242.855 644.903 242.855 645.058 242.7C645.213 242.7 645.213 242.545 645.368 242.545C645.523 242.545 645.523 242.389 645.679 242.389C645.834 242.234 645.989 242.234 646.299 242.079C646.299 242.079 646.299 242.079 646.454 242.079C646.764 241.924 646.919 241.769 647.074 241.614C647.074 241.614 647.229 241.614 647.229 241.459C647.54 241.149 647.85 240.994 648.16 240.683C648.16 240.683 648.315 240.683 648.315 240.528C648.47 240.373 648.78 240.063 648.935 239.908C649.091 239.753 649.246 239.443 649.401 239.288C649.401 239.288 649.401 239.133 649.556 239.133C649.711 238.822 649.866 238.512 650.021 238.357V238.202C650.021 238.047 650.176 237.892 650.176 237.582C650.176 237.426 650.176 237.271 650.176 237.116V236.961C650.176 236.806 650.176 236.806 650.176 236.651C650.176 236.496 650.176 236.341 650.176 236.186C650.176 236.031 650.021 235.876 650.021 235.72L706.941 358.555C706.941 358.71 707.096 358.865 707.096 358.865C707.096 359.02 707.096 359.175 707.096 359.175C707.096 359.175 707.096 359.33 707.096 359.485V359.64C707.096 359.795 707.096 359.95 707.096 360.106C707.096 360.261 706.941 360.416 706.941 360.726C706.785 361.036 706.63 361.346 706.475 361.501C706.32 361.656 706.165 361.967 706.01 362.122C705.855 362.277 705.7 362.587 705.39 362.742C705.079 363.052 704.769 363.207 704.459 363.518C704.304 363.673 703.994 363.828 703.839 363.983C703.684 364.138 703.528 364.138 703.218 364.293C703.063 364.293 703.063 364.448 702.908 364.448C702.753 364.448 702.753 364.603 702.598 364.603C702.443 364.758 702.288 364.758 701.977 364.758C701.822 364.913 701.512 364.913 701.357 364.913C701.202 364.913 701.202 364.913 701.047 364.913H700.892H700.737C700.427 364.913 700.271 365.069 699.961 365.069H699.806C699.651 365.069 699.341 365.069 699.186 365.069C698.876 365.069 698.41 365.069 698.1 365.069C696.549 364.913 695.464 364.293 694.998 363.363L638.079 240.528C637.924 242.7 639.009 243.32 640.405 243.475Z" fill="url(#paint7_linear_0_1)" />
	<path d="M646.92 234.169C648.626 234.324 649.867 235.1 650.177 236.341C650.643 238.512 648.161 241.459 644.594 242.854C643.043 243.475 641.647 243.63 640.406 243.475C638.7 243.32 637.46 242.544 637.149 241.304C636.684 239.132 639.166 236.185 642.733 234.79C644.284 234.169 645.68 234.014 646.92 234.169Z" fill="#CFCDCA" />
	<path d="M590.775 291.864C590.775 291.709 590.775 291.554 590.775 291.399C590.775 291.089 590.775 290.778 590.775 290.468C590.775 290.158 590.775 289.693 590.775 289.383C590.775 289.072 590.775 288.762 590.775 288.452C590.775 288.142 590.775 287.832 590.93 287.366C590.93 287.211 590.93 286.901 590.93 286.746C590.93 286.281 591.085 285.815 591.085 285.195C591.085 284.885 591.085 284.575 591.241 284.264C591.241 284.109 591.241 284.109 591.241 283.954C591.396 283.024 591.551 282.093 591.551 281.318C591.551 281.163 591.551 281.008 591.551 280.852C591.706 280.077 591.861 279.301 592.016 278.526C592.016 278.371 592.016 278.216 592.171 278.061C592.171 277.751 592.326 277.285 592.326 276.975C592.481 276.51 592.481 276.045 592.636 275.734C592.636 275.424 592.791 275.269 592.791 274.959C592.947 274.494 592.947 274.183 593.102 273.718C593.102 273.408 593.257 273.098 593.257 272.788C593.412 272.477 593.412 272.012 593.567 271.702C593.722 271.237 593.722 270.926 593.877 270.461C593.877 270.306 594.032 270.151 594.032 269.841C594.187 269.376 594.342 268.755 594.497 268.29C594.653 267.98 594.653 267.669 594.808 267.204C594.808 267.049 594.808 267.049 594.963 266.894C595.273 265.963 595.583 265.033 595.893 264.102C595.893 263.947 595.893 263.947 596.048 263.792C596.359 263.017 596.669 262.086 596.979 261.311C596.979 261.156 597.134 261 597.134 261C597.289 260.69 597.289 260.38 597.444 260.07C597.599 259.605 597.754 259.139 597.91 258.829C598.065 258.519 598.065 258.209 598.22 258.054C598.375 257.743 598.53 257.433 598.685 256.968C598.84 256.658 598.84 256.503 598.995 256.193C599.15 255.727 599.46 255.262 599.616 254.797C599.771 254.487 599.771 254.176 599.926 254.021C599.926 253.866 600.081 253.866 600.081 253.711C600.391 252.78 600.856 252.005 601.322 251.074C601.322 251.074 601.322 251.074 601.322 250.919C601.477 250.764 601.477 250.454 601.632 250.299C601.942 249.679 602.252 248.903 602.562 248.283C602.562 248.128 602.717 248.128 602.717 247.973C603.028 247.507 603.338 246.887 603.493 246.422C603.648 245.956 603.958 245.491 604.113 245.181C604.113 245.026 604.268 245.026 604.268 245.026C605.044 243.63 605.819 242.234 606.595 240.838C606.595 240.683 606.75 240.528 606.75 240.528C606.905 240.218 607.215 239.908 607.37 239.442C607.68 238.822 607.991 238.357 608.456 237.736C608.766 237.271 609.076 236.806 609.386 236.185C609.697 235.565 610.007 235.1 610.472 234.635C610.627 234.479 610.627 234.324 610.782 234.169C610.937 234.014 611.093 233.859 611.093 233.704C612.023 232.308 613.109 230.757 614.194 229.361C614.97 228.431 615.745 227.345 616.521 226.415C616.521 226.415 616.521 226.259 616.676 226.259C617.296 225.484 617.762 224.864 618.382 224.088C618.537 223.933 618.537 223.778 618.692 223.623C619.312 222.847 620.088 222.072 620.708 221.141C620.708 221.141 620.708 221.141 620.863 220.986C621.019 220.676 621.329 220.521 621.484 220.211C621.949 219.746 622.414 219.28 622.88 218.815C623.035 218.66 623.035 218.66 623.19 218.505C623.5 218.195 623.81 217.884 624.12 217.574C624.431 217.264 624.741 216.799 625.206 216.489C625.361 216.333 625.516 216.178 625.516 216.178C625.826 215.868 626.137 215.558 626.447 215.248C626.757 214.938 627.067 214.627 627.377 214.317C627.532 214.162 627.688 214.007 627.843 213.852C628.153 213.542 628.618 213.232 628.928 212.766C629.238 212.456 629.394 212.301 629.704 211.991C629.859 211.836 630.169 211.681 630.324 211.526C630.634 211.215 631.1 210.905 631.41 210.595C631.565 210.44 631.875 210.13 632.03 209.975C632.34 209.82 632.495 209.509 632.806 209.354C633.116 209.044 633.581 208.734 633.891 208.424C634.046 208.269 634.201 208.114 634.512 207.958C634.822 207.648 635.132 207.493 635.442 207.183C635.752 206.873 636.063 206.718 636.528 206.407C636.683 206.252 636.838 206.252 636.993 206.097C637.458 205.787 637.769 205.477 638.234 205.167C638.544 205.012 638.854 204.701 639.164 204.546L639.32 204.391C640.095 203.926 640.87 203.306 641.646 202.84C641.646 202.84 641.801 202.84 641.801 202.685C642.421 202.22 643.197 201.755 643.817 201.444C643.972 201.289 644.127 201.289 644.283 201.134C644.903 200.824 645.368 200.514 645.989 200.204C646.144 200.049 646.454 200.049 646.609 199.894C646.919 199.738 647.229 199.583 647.54 199.428C647.695 199.273 648.005 199.118 648.16 199.118C648.47 198.963 648.935 198.808 649.246 198.653C649.556 198.498 649.711 198.343 650.021 198.343C650.176 198.343 650.176 198.188 650.331 198.188C651.107 197.877 651.727 197.567 652.503 197.257C653.278 196.947 653.898 196.637 654.674 196.481C654.829 196.481 654.829 196.481 654.984 196.326C655.294 196.171 655.449 196.171 655.759 196.016C656.07 195.861 656.535 195.706 656.845 195.706C657 195.706 657.155 195.551 657.31 195.551C657.621 195.396 657.931 195.396 658.241 195.241C658.551 195.241 658.706 195.086 659.016 195.086C659.327 195.086 659.482 194.931 659.792 194.931C660.102 194.931 660.412 194.775 660.722 194.775C660.878 194.775 661.033 194.62 661.188 194.62C661.498 194.62 661.808 194.465 662.118 194.465C662.428 194.465 662.894 194.31 663.204 194.31C663.359 194.31 663.514 194.31 663.514 194.31C663.824 194.31 664.135 194.31 664.445 194.155C664.755 194.155 665.22 194 665.53 194C665.685 194 665.685 194 665.841 194C666.151 194 666.306 194 666.616 194C667.081 194 667.547 194 668.012 194C668.167 194 668.322 194 668.322 194C668.477 194 668.632 194 668.942 194C669.563 194 670.028 194 670.648 194.155C670.804 194.155 670.959 194.155 671.114 194.155C671.424 194.155 671.579 194.155 671.734 194.31C671.889 194.31 672.044 194.31 672.199 194.31C672.82 194.465 673.44 194.465 674.061 194.62C674.216 194.62 674.371 194.775 674.526 194.775C674.991 194.931 675.611 194.931 676.077 195.086C676.387 195.086 676.542 195.241 676.852 195.241C677.162 195.396 677.473 195.396 677.783 195.551C677.938 195.551 677.938 195.551 677.938 195.706C678.403 195.861 678.868 196.016 679.334 196.326C679.489 196.481 679.799 196.481 679.954 196.637C680.574 196.947 681.35 197.257 681.97 197.722L698.565 207.338C697.945 207.028 697.169 206.563 696.549 206.252C696.394 206.097 696.084 206.097 695.929 205.942C695.463 205.787 694.998 205.477 694.533 205.322C694.068 205.167 693.757 205.012 693.292 204.857C692.982 204.857 692.827 204.701 692.517 204.701C692.051 204.546 691.586 204.391 690.966 204.391C690.811 204.391 690.656 204.236 690.5 204.236C689.88 204.081 689.26 204.081 688.639 203.926C688.484 203.926 688.329 203.926 688.174 203.926C687.709 203.926 687.399 203.926 686.933 203.771C686.313 203.771 685.848 203.771 685.227 203.616C684.917 203.616 684.607 203.616 684.297 203.616C683.831 203.616 683.366 203.616 682.901 203.616C682.591 203.616 682.125 203.616 681.815 203.616C681.505 203.616 681.04 203.616 680.73 203.771C680.264 203.771 679.954 203.926 679.489 203.926C679.179 203.926 678.713 204.081 678.403 204.081C677.938 204.236 677.473 204.236 677.007 204.391C676.697 204.391 676.387 204.546 676.077 204.546C675.611 204.701 675.146 204.857 674.526 204.857C674.216 205.012 673.905 205.012 673.595 205.167C673.13 205.322 672.51 205.477 671.889 205.632C671.579 205.787 671.424 205.787 671.114 205.942C670.338 206.252 669.563 206.563 668.632 206.873C667.857 207.183 666.926 207.493 666.151 207.958C665.841 208.114 665.685 208.269 665.375 208.269C664.755 208.579 664.135 208.889 663.669 209.199C663.359 209.354 663.049 209.509 662.739 209.664C661.963 210.13 661.188 210.44 660.412 210.905C659.482 211.37 658.706 211.991 657.776 212.456C657.776 212.456 657.621 212.456 657.621 212.611C656.845 213.077 655.915 213.697 655.139 214.317C654.829 214.472 654.519 214.783 654.209 214.938C653.588 215.403 653.123 215.713 652.503 216.178C652.192 216.489 651.882 216.644 651.417 216.954C650.952 217.264 650.486 217.729 649.866 218.195C649.556 218.505 649.09 218.815 648.78 219.125C648.315 219.59 647.85 219.901 647.384 220.366C647.074 220.676 646.609 220.986 646.299 221.296C645.833 221.762 645.368 222.072 644.903 222.537C644.593 222.847 644.127 223.158 643.817 223.623C643.352 224.088 642.887 224.553 642.421 224.864C642.111 225.174 641.801 225.484 641.336 225.794C640.87 226.259 640.405 226.725 639.94 227.19C639.63 227.5 639.32 227.81 639.009 228.121C638.544 228.741 637.924 229.206 637.458 229.827C637.303 230.137 636.993 230.292 636.838 230.602C636.063 231.378 635.287 232.308 634.667 233.239C634.512 233.394 634.512 233.549 634.357 233.704C633.736 234.479 633.116 235.255 632.495 235.875C631.72 236.806 630.944 237.892 630.324 238.822C629.238 240.218 628.308 241.614 627.222 243.165C626.912 243.475 626.757 243.785 626.447 244.25C626.137 244.716 625.671 245.336 625.361 245.801C625.051 246.267 624.741 246.732 624.431 247.352C624.12 247.973 623.81 248.438 623.345 249.058C623.035 249.524 622.725 249.989 622.569 250.454C621.794 251.85 621.018 253.246 620.243 254.642C619.933 255.107 619.778 255.727 619.468 256.193C619.157 256.658 618.847 257.278 618.692 257.743C618.227 258.519 617.917 259.294 617.606 260.07C617.451 260.225 617.451 260.535 617.296 260.69C616.831 261.621 616.366 262.706 615.9 263.637C615.745 263.947 615.745 264.102 615.59 264.413C615.28 265.188 614.97 265.963 614.66 266.584C614.505 266.894 614.349 267.204 614.194 267.669C613.884 268.445 613.574 269.065 613.419 269.841C613.264 270.151 613.109 270.461 613.109 270.771C612.799 271.702 612.488 272.632 612.178 273.563C612.178 273.563 612.178 273.718 612.023 273.718C611.713 274.804 611.403 275.734 611.093 276.82C610.937 277.13 610.937 277.44 610.782 277.751C610.627 278.526 610.317 279.146 610.162 279.922C610.007 280.387 610.007 280.697 609.852 281.163C609.697 281.783 609.542 282.558 609.386 283.179C609.231 283.644 609.231 283.954 609.076 284.42C608.921 285.04 608.766 285.815 608.611 286.436C608.611 286.746 608.456 287.211 608.456 287.521C608.301 288.452 608.146 289.227 607.991 290.158C607.991 290.313 607.991 290.468 607.991 290.468C607.836 291.554 607.68 292.484 607.525 293.57C607.525 293.88 607.525 294.19 607.37 294.501C607.215 295.276 607.215 295.897 607.215 296.672C607.215 296.982 607.215 297.292 607.06 297.758C607.06 298.378 606.905 299.153 606.905 299.774C606.905 300.084 606.905 300.394 606.905 300.704C606.905 301.635 606.905 302.566 606.905 303.651C606.905 304.582 606.905 305.667 606.905 306.598C606.905 306.908 606.905 307.063 606.905 307.373C606.905 307.994 607.06 308.769 607.06 309.39C607.06 309.7 607.06 310.165 607.215 310.475C607.215 311.096 607.37 311.561 607.37 312.026C607.37 312.492 607.525 312.802 607.525 313.267C607.68 313.732 607.68 314.198 607.836 314.663C607.991 315.128 607.991 315.593 608.146 315.904C608.301 316.369 608.301 316.834 608.456 317.144C608.611 317.61 608.766 318.075 608.766 318.54C608.921 318.85 608.921 319.316 609.076 319.626C609.231 320.246 609.386 320.712 609.697 321.332C609.852 321.642 609.852 321.952 610.007 322.262C610.317 323.193 610.782 324.124 611.093 325.054C611.403 325.674 611.713 326.45 612.023 327.07C612.333 327.691 612.799 328.311 613.109 328.931C613.264 329.087 613.264 329.242 613.419 329.242C613.729 329.707 614.039 330.172 614.349 330.482C614.505 330.637 614.66 330.793 614.66 330.948C614.97 331.258 615.28 331.723 615.59 332.033C615.745 332.188 615.9 332.344 615.9 332.499C616.366 332.964 616.831 333.429 617.296 333.894L617.451 334.05C617.917 334.36 618.227 334.825 618.692 335.135C618.847 335.29 619.002 335.445 619.157 335.445C619.468 335.756 619.933 336.066 620.243 336.221C620.398 336.376 620.553 336.376 620.708 336.531C621.174 336.841 621.794 337.151 622.259 337.617L605.664 328.001C605.044 327.691 604.579 327.381 604.113 326.915C603.958 326.76 603.803 326.76 603.648 326.605C603.338 326.295 602.873 325.985 602.562 325.83C602.407 325.674 602.252 325.519 602.097 325.519C601.632 325.209 601.322 324.744 600.856 324.434L600.701 324.279C600.236 323.813 599.771 323.348 599.305 322.883C599.15 322.728 598.995 322.573 598.995 322.418C598.685 322.107 598.375 321.642 598.065 321.332C597.91 321.177 597.754 321.022 597.599 320.867C597.289 320.401 596.979 319.936 596.669 319.626C596.514 319.471 596.514 319.316 596.359 319.316C596.359 319.316 596.359 319.316 596.359 319.161C596.048 318.54 595.583 317.92 595.273 317.455C594.963 316.834 594.653 316.214 594.342 315.593C594.342 315.593 594.342 315.593 594.342 315.438C593.877 314.508 593.567 313.732 593.257 312.647C593.257 312.492 593.257 312.492 593.102 312.336C592.947 312.181 592.947 311.871 592.947 311.716C592.791 311.096 592.481 310.63 592.326 310.01C592.326 309.855 592.171 309.7 592.171 309.545C592.171 309.39 592.016 309.079 592.016 308.924C591.861 308.459 591.706 307.994 591.706 307.529C591.706 307.373 591.551 307.063 591.551 306.908C591.551 306.753 591.396 306.443 591.396 306.288C591.241 305.823 591.241 305.512 591.085 305.047C591.085 304.892 590.93 304.582 590.93 304.427C590.93 304.116 590.93 303.961 590.775 303.651C590.775 303.341 590.62 302.876 590.62 302.41C590.62 302.255 590.62 301.945 590.465 301.79C590.465 301.48 590.465 301.17 590.31 300.704C590.31 300.394 590.155 299.929 590.155 299.619C590.155 299.464 590.155 299.309 590.155 299.153C590.155 298.688 590.155 298.068 590 297.603C590 297.292 590 297.137 590 296.827V296.672C590 295.897 590 294.966 590 294.035V293.88C590.775 293.415 590.775 292.64 590.775 291.864Z" fill="url(#paint8_linear_0_1)" />
	<path d="M660.723 211.37C631.1 228.431 607.216 269.841 607.371 303.961C607.526 337.927 631.565 351.73 661.188 334.67C690.811 317.609 714.695 276.199 714.54 242.079C714.385 207.958 690.346 194.155 660.723 211.37Z" fill="url(#paint9_linear_0_1)" />
	<path d="M660.568 220.211C635.288 234.79 614.815 270.152 614.97 299.309C615.125 328.312 635.598 340.099 660.878 325.52C686.158 310.941 706.631 275.58 706.476 246.422C706.476 217.265 686.003 205.633 660.568 220.211Z" fill="#F0EEEA" />
	<path d="M660.722 232.619C641.491 243.786 625.826 270.772 625.826 292.951C625.826 315.129 641.646 324.125 660.877 312.958C680.264 301.791 695.773 274.805 695.773 252.626C695.618 230.448 679.954 221.453 660.722 232.619Z" fill="url(#paint10_linear_0_1)" />
	<path d="M660.722 245.026C647.384 252.781 636.683 271.392 636.683 286.747C636.683 302.101 647.539 308.305 660.877 300.55C674.215 292.795 684.917 274.184 684.917 258.83C684.917 243.476 674.06 237.272 660.722 245.026Z" fill="#F0EEEA" />
	<path d="M660.725 262.241C655.607 265.188 651.575 272.167 651.575 278.061C651.575 283.799 655.762 286.281 660.725 283.334C665.843 280.387 669.876 273.408 669.876 267.514C669.876 261.621 665.843 259.294 660.725 262.241Z" fill="url(#paint11_linear_0_1)" />
	<path d="M668.322 276.355V279.457L672.509 276.975V274.028L668.322 276.355Z" fill="#5A286C" />
	<path d="M666.151 277.595V280.542L668.323 279.456V276.354L666.151 277.595Z" fill="#4A4A4A" />
	<path d="M747.729 323.659V326.761H749.745V323.659H747.729Z" fill="#606060" />
	<path d="M747.731 323.659V326.761L747.886 328.002V325.055L747.731 323.659Z" fill="#535353" />
	<path d="M666.152 277.596V280.543L747.886 328.002V325.055L666.152 277.596Z" fill="#5A286C" />
	<path d="M662.118 280.077V283.024L666.15 280.542V277.595L662.118 280.077Z" fill="#4A4A4A" />
	<path d="M657.466 270.151V273.097L662.119 283.023V280.077L657.466 270.151Z" fill="#5A286C" />
	<path d="M749.592 324.745V327.691H751.454V324.745H749.592Z" fill="#606060" />
	<path d="M751.454 324.745V327.691H759.674V324.745H751.454Z" fill="#5A286C" />
	<path d="M749.59 324.744V327.691L749.745 329.087V326.14L749.59 324.744Z" fill="#535353" />
	<path d="M753.932 327.381V330.328H755.949V327.381H753.932Z" fill="#606060" />
	<path d="M757.582 328.285L757.59 331.232L755.729 331.237L755.721 328.291L757.582 328.285Z" fill="#606060" />
	<path d="M757.659 328.311V331.257H765.879V328.311H757.659Z" fill="#5A286C" />
	<path d="M753.934 327.381V330.328L754.089 331.723V328.622L753.934 327.381Z" fill="#535353" />
	<path d="M749.747 326.14V329.087L754.089 331.724V328.622L749.747 326.14Z" fill="#5A286C" />
	<path d="M755.794 328.312V331.259L755.949 332.809V329.708L755.794 328.312Z" fill="#535353" />
	<path d="M747.884 325.053V328L748.505 333.739V330.792L747.884 325.053Z" fill="#5A286C" />
	<path d="M748.505 330.793V333.74H750.366V330.793H748.505Z" fill="#5A286C" />
	<path d="M755.95 329.707V332.809L760.293 335.29V332.343L755.95 329.707Z" fill="#5A286C" />
	<path d="M657.468 270.151L672.512 274.028L668.324 276.354L749.748 323.658H747.732L747.887 325.054L666.153 277.595L662.12 280.077L657.468 270.151Z" fill="#F0EEEA" />
	<path d="M749.748 323.658H759.674V324.744H751.454L755.952 327.381H765.878V328.311H757.658L762.311 331.103L760.294 332.344L755.952 329.707L756.572 334.36H754.711L754.091 328.621L749.748 326.14L750.368 330.793H748.507L747.887 325.054L747.732 323.658H749.748Z" fill="#F0EEEA" />
	<path d="M760.294 332.343V335.29L762.31 334.049V331.102L760.294 332.343Z" fill="#5A286C" />
	<path d="M754.709 334.36V337.462L756.57 337.307V334.36H754.709Z" fill="#5A286C" />
	<path d="M754.088 328.621V331.723L754.708 337.461V334.36L754.088 328.621Z" fill="#5A286C" />
	<path opacity="0.31" d="M716 442.141C716 442.296 716 442.296 716 442.451V442.606C716 442.761 716 442.761 716 442.916C716 442.916 716 443.071 716.155 443.071C716.155 443.226 716.155 443.226 716.31 443.382C716.31 443.382 716.31 443.537 716.465 443.537C716.465 443.692 716.62 443.692 716.62 443.847L716.776 444.002C716.931 444.157 716.931 444.312 717.086 444.312L717.241 444.467C717.396 444.467 717.396 444.622 717.551 444.622L717.706 444.777C717.861 444.777 717.861 444.932 718.016 444.932C718.171 444.932 718.171 445.088 718.326 445.088L756.324 467.266C756.635 467.421 757.1 467.576 757.41 467.886C757.565 467.886 757.565 468.041 757.72 468.041C758.03 468.196 758.186 468.196 758.496 468.352C758.806 468.352 758.961 468.507 759.271 468.507C759.581 468.507 759.892 468.662 760.202 468.662C760.357 468.662 760.357 468.662 760.512 468.662C760.977 468.662 761.442 468.662 761.908 468.662H762.063C762.528 468.662 762.993 468.662 763.459 468.662H763.614C764.079 468.662 764.544 468.507 765.01 468.507C765.165 468.507 765.165 468.507 765.32 468.507C765.785 468.352 766.095 468.352 766.405 468.196H766.561C767.026 468.041 767.491 467.886 767.801 467.576L806.265 445.243C807.815 444.312 808.746 443.071 808.746 441.831L808.901 489.754C808.901 490.995 808.126 492.236 806.42 493.167L768.111 515.345C767.801 515.5 767.336 515.81 766.871 515.965H766.716C766.405 516.12 766.25 516.12 765.94 516.276C765.785 516.276 765.63 516.275 765.475 516.431C765.32 516.431 765.32 516.431 765.165 516.431H765.01C764.699 516.431 764.544 516.586 764.234 516.586C764.079 516.586 764.079 516.586 763.924 516.586H763.769C763.614 516.586 763.614 516.586 763.459 516.586C763.149 516.586 762.993 516.586 762.683 516.586C762.528 516.586 762.528 516.586 762.373 516.586H762.218C762.063 516.586 761.908 516.586 761.908 516.586C761.598 516.586 761.287 516.586 760.977 516.586C760.977 516.586 760.977 516.586 760.822 516.586C760.667 516.586 760.667 516.586 760.512 516.586C760.202 516.586 760.047 516.586 759.736 516.431C759.581 516.431 759.581 516.431 759.426 516.431C759.116 516.431 758.806 516.276 758.651 516.276C758.496 516.276 758.341 516.276 758.186 516.12C758.03 516.12 758.03 515.965 757.875 515.965C757.72 515.965 757.72 515.81 757.565 515.81C757.1 515.655 756.79 515.5 756.479 515.19L718.482 493.011C718.482 493.011 718.482 493.011 718.326 493.011L718.171 492.856C718.016 492.856 718.016 492.701 717.861 492.701C717.706 492.701 717.706 492.546 717.706 492.546C717.551 492.546 717.551 492.391 717.396 492.391C717.396 492.391 717.396 492.391 717.241 492.236C717.086 492.081 716.931 491.926 716.931 491.926C716.931 491.926 716.931 491.926 716.931 491.771C716.931 491.771 716.931 491.771 716.931 491.616C716.931 491.461 716.776 491.461 716.776 491.305C716.776 491.305 716.776 491.15 716.62 491.15C716.62 490.995 716.465 490.995 716.465 490.84V490.685C716.465 490.53 716.465 490.53 716.465 490.375V490.22C716.465 490.065 716.465 490.065 716.465 489.91V489.754L716.31 441.986C716 441.986 716 442.141 716 442.141Z" fill="url(#paint12_linear_0_1)" />
	<path d="M718.48 438.574C715.223 440.435 715.223 443.382 718.48 445.243L756.478 467.422C759.735 469.283 764.853 469.283 768.11 467.422L806.263 445.243C809.52 443.382 809.52 440.435 806.263 438.574L768.265 416.396C765.008 414.535 759.89 414.535 756.633 416.396L718.48 438.574Z" fill="url(#paint13_linear_0_1)" />
	<path d="M699.107 501.147C699.883 502.853 705.931 501.302 709.499 499.131C710.894 498.355 711.67 498.51 712.135 497.735C712.911 496.494 712.911 494.633 712.29 493.547C711.515 491.841 708.258 491.686 705.311 494.943C701.899 498.976 698.332 499.596 699.107 501.147Z" fill="url(#paint14_linear_0_1)" />
	<path d="M712.599 491.996L708.722 491.065L707.636 493.392C707.636 493.392 709.963 495.563 711.048 494.943C711.824 494.477 712.289 493.702 712.599 491.996Z" fill="#FABCAF" />
	<path d="M712.601 491.996C712.601 491.996 709.654 492.616 708.103 491.065L708.568 455.859C708.568 455.859 707.793 449.81 718.804 443.762L737.881 432.595L742.999 438.333L720.666 459.116L712.601 491.996Z" fill="url(#paint15_linear_0_1)" />
	<path d="M707.326 505.8C708.101 507.506 714.15 505.955 717.717 503.784C719.113 503.008 719.888 503.163 720.354 502.388C721.129 501.147 721.129 499.286 720.509 498.2C719.733 496.494 716.476 496.339 713.529 499.596C710.117 503.473 706.55 504.094 707.326 505.8Z" fill="url(#paint16_linear_0_1)" />
	<path d="M720.976 496.494L717.098 495.563L716.013 497.89C716.013 497.89 718.339 500.061 719.425 499.285C720.045 499.13 720.666 498.2 720.976 496.494Z" fill="#FABCAF" />
	<path d="M760.526 440.506C762.542 450.122 766.419 463.615 727.646 465.321C727.646 465.321 723.768 487.654 720.822 496.96C720.822 496.96 719.116 497.89 716.479 496.495C716.479 496.495 715.548 471.68 716.789 460.203C716.789 460.203 716.479 449.346 731.213 449.811L744.086 434.147C744.241 434.147 758.509 430.89 760.526 440.506Z" fill="url(#paint17_linear_0_1)" />
	<path d="M747.497 375.366C747.497 375.366 740.828 373.039 741.293 382.5C741.603 392.116 735.865 425.151 734.779 426.547C734.779 426.547 746.722 430.269 748.893 422.979L747.497 375.366Z" fill="url(#paint18_linear_0_1)" />
	<path d="M731.367 460.357L749.668 445.313L718.339 430.734L703.605 446.243L731.367 460.357Z" fill="#D2CAD9" />
	<path d="M714.152 437.558C714.617 437.403 731.677 422.049 731.677 422.049C731.677 422.049 734.934 414.604 735.865 411.812C739.587 413.674 740.673 411.192 743.93 414.294C740.052 420.653 736.485 427.942 736.485 427.942C731.987 431.509 717.719 440.505 717.564 440.815C716.478 442.211 712.911 437.558 714.152 437.558Z" fill="url(#paint19_linear_0_1)" />
	<path d="M747.497 400.956C747.497 400.956 745.325 397.389 732.608 412.743C733.848 415.845 735.865 415.845 737.571 418.637C740.207 414.604 742.689 410.262 744.085 406.384L747.497 400.956Z" fill="url(#paint20_linear_0_1)" />
	<path d="M746.102 401.266C746.412 400.645 753.392 397.078 756.804 399.25C762.077 402.507 764.403 405.764 764.403 405.764C764.403 409.176 760.526 435.076 761.612 440.815C762.697 441.9 749.514 445.157 736.797 433.06C736.797 433.06 739.123 430.423 740.053 424.375C740.053 424.375 732.919 419.567 738.347 410.727C739.433 409.176 744.861 403.437 746.102 401.266Z" fill="url(#paint21_linear_0_1)" />
	<path d="M741.759 383.431C741.759 376.607 747.032 373.195 752.46 373.195C757.889 373.195 760.215 379.553 760.215 386.378C760.215 388.859 759.439 391.341 758.044 393.667L757.423 399.095C751.685 412.588 746.722 404.058 746.722 404.058L750.444 399.56C742.379 402.197 741.759 390.255 741.759 383.431Z" fill="url(#paint22_linear_0_1)" />
	<path d="M721.286 444.382C718.65 444.537 716.478 444.071 716.478 443.451C716.478 442.831 718.494 442.21 721.131 442.055C723.147 441.9 725.939 441.59 727.18 441.745C727.645 441.59 750.134 429.493 750.134 429.493C752.15 423.134 754.476 419.101 755.407 416.155C759.129 418.016 759.439 419.877 762.541 422.824C758.664 429.182 753.08 435.696 753.08 435.696C748.583 439.264 729.351 445.622 729.041 445.933C728.11 447.328 726.714 449.655 725.319 450.74C722.217 453.222 718.494 453.532 717.254 451.981C716.168 450.12 718.184 446.863 721.286 444.382Z" fill="url(#paint23_linear_0_1)" />
	<path d="M763.627 404.523C762.386 403.902 760.99 404.368 758.974 407.159C756.493 410.571 754.942 414.604 753.856 418.636C753.856 418.636 758.354 424.375 763.472 425.305C763.317 425.15 766.108 416.31 766.263 415.379C766.729 412.122 765.953 405.763 763.627 404.523Z" fill="#FF0F88" />
	<path d="M731.367 437.713L701.124 424.064L701.744 445.622L731.367 460.356V437.713Z" fill="#F7EEFF" />
	<path d="M745.48 375.521C745.48 375.521 747.186 373.194 749.358 372.574C772.467 365.75 770.14 422.049 770.14 422.049C768.279 428.097 749.047 424.375 749.047 424.375C751.684 422.359 757.267 391.495 757.267 391.495C760.835 379.398 753.545 384.671 754.166 388.393C754.01 389.324 753.855 389.944 753.855 389.944C747.652 386.377 746.256 382.035 745.946 380.018C744.55 377.072 745.48 375.521 745.48 375.521Z" fill="url(#paint24_linear_0_1)" />
	<path d="M746.412 377.847C746.412 377.847 740.209 383.12 740.364 389.014C740.364 389.014 739.278 377.847 746.102 375.211L746.412 377.847Z" fill="url(#paint25_linear_0_1)" />
	<path d="M318.755 502.162V514.88C318.755 515.035 318.755 515.19 318.91 515.19V502.472C318.91 502.472 318.755 502.317 318.755 502.162Z" fill="#113464" />
	<path d="M369.159 512.399V525.117C369.159 524.031 369.78 522.945 371.175 522.17C372.571 521.394 373.347 520.309 373.192 519.223V506.505C373.192 507.591 372.571 508.522 371.175 509.452C369.78 510.383 369.159 511.313 369.159 512.399Z" fill="url(#paint26_linear_0_1)" />
	<path d="M369.159 512.399V525.117C369.159 524.031 369.78 522.945 371.175 522.17C372.571 521.394 373.347 520.309 373.192 519.223V506.505C373.192 507.591 372.571 508.522 371.175 509.452C369.78 510.383 369.159 511.313 369.159 512.399Z" fill="url(#paint27_linear_0_1)" />
	<path d="M318.909 502.628V515.346L327.284 538.765L327.129 526.048L318.909 502.628Z" fill="url(#paint28_linear_0_1)" />
	<path d="M327.439 526.512C327.439 526.667 327.439 526.667 327.439 526.512C327.594 526.822 327.749 526.822 327.749 526.977L327.904 527.132L328.059 527.288C328.214 527.443 328.525 527.753 328.835 527.908C328.835 527.908 328.835 527.908 328.99 527.908C329.145 528.063 329.455 528.063 329.61 528.218C329.765 528.218 329.765 528.218 329.92 528.373C330.075 528.373 330.231 528.528 330.386 528.528C330.541 528.528 330.541 528.528 330.696 528.528C331.006 528.683 331.471 528.683 331.781 528.839H331.937C332.092 528.839 332.247 528.839 332.557 528.994C332.712 528.994 332.712 528.994 332.867 528.994H333.022C333.177 528.994 333.488 528.994 333.643 528.994C333.798 528.994 333.798 528.994 333.953 528.994C334.108 528.994 334.418 528.994 334.573 528.994C334.728 528.994 334.728 528.994 334.883 528.994C335.038 528.994 335.349 528.994 335.504 528.994H335.659C335.969 528.994 336.124 528.839 336.434 528.839C336.589 528.839 336.589 528.839 336.745 528.839C336.9 528.839 337.055 528.683 337.21 528.683C337.365 528.683 337.52 528.528 337.675 528.528C337.83 528.528 337.985 528.373 337.985 528.373C338.295 528.218 338.606 528.063 338.916 527.908C339.226 527.753 339.536 527.598 340.001 527.443H340.157C340.312 527.443 340.622 527.288 340.777 527.288C340.932 527.288 341.087 527.288 341.087 527.132H341.242H341.397C341.552 527.132 341.863 526.977 342.173 526.977C342.328 526.977 342.328 526.977 342.483 526.977H342.638C342.793 526.977 342.793 526.977 342.948 526.977C343.103 526.977 343.414 526.977 343.569 526.977H343.724H343.879C344.034 526.977 344.034 526.977 344.189 526.977C344.499 526.977 344.654 526.977 344.964 526.977C344.964 526.977 344.964 526.977 345.12 526.977H345.275C345.43 526.977 345.74 526.977 345.895 527.132C346.05 527.132 346.05 527.132 346.205 527.132C346.515 527.132 346.671 527.288 346.981 527.288C347.136 527.288 347.291 527.288 347.291 527.443C347.446 527.443 347.446 527.443 347.601 527.598C347.756 527.598 347.756 527.598 347.911 527.753C348.221 527.908 348.532 528.063 348.842 528.218V540.936C348.532 540.781 348.221 540.626 347.911 540.471C347.756 540.471 347.756 540.471 347.601 540.315C347.446 540.16 347.136 540.16 346.981 540.16C346.671 540.16 346.515 540.005 346.205 540.005C345.895 540.005 345.585 539.85 345.43 539.85H345.275C344.809 539.85 344.499 539.85 344.034 539.85H343.879C343.414 539.85 343.103 539.85 342.638 539.85H342.483C342.173 539.85 341.708 540.005 341.397 540.005H341.242C340.932 540.16 340.622 540.16 340.312 540.315H340.157C339.846 540.471 339.381 540.626 339.071 540.781C338.761 540.936 338.451 541.091 338.14 541.246C338.14 541.246 338.14 541.246 337.985 541.246C337.83 541.246 337.83 541.246 337.675 541.401C337.52 541.401 337.365 541.556 337.21 541.556H337.055C336.9 541.556 336.745 541.556 336.589 541.711C336.434 541.711 336.434 541.711 336.279 541.711C336.279 541.711 336.279 541.711 336.124 541.711C335.969 541.711 335.659 541.866 335.504 541.866H335.349C335.194 541.866 335.038 541.866 334.883 541.866H334.728C334.573 541.866 334.573 541.866 334.418 541.866C334.263 541.866 334.263 541.866 334.108 541.866C333.953 541.866 333.798 541.866 333.798 541.866C333.643 541.866 333.643 541.866 333.488 541.866C333.488 541.866 333.488 541.866 333.332 541.866C333.177 541.866 333.022 541.866 332.712 541.866H332.557C332.402 541.866 332.402 541.866 332.247 541.866C332.092 541.866 331.937 541.866 331.626 541.711C331.626 541.711 331.626 541.711 331.471 541.711C331.006 541.711 330.696 541.556 330.386 541.401H330.231C330.231 541.401 330.231 541.401 330.075 541.401C329.92 541.401 329.765 541.246 329.61 541.246C329.455 541.246 329.455 541.246 329.3 541.091C329.145 540.936 328.835 540.936 328.68 540.781C328.68 540.781 328.68 540.781 328.525 540.781C328.214 540.626 328.059 540.471 327.749 540.16C327.749 540.16 327.749 540.16 327.594 540.16L327.439 540.005L327.284 539.85C327.284 539.85 327.284 539.85 327.129 539.695L326.974 539.54C326.974 539.54 326.974 539.385 326.819 539.385C326.819 539.23 326.663 539.075 326.663 538.92V526.202C327.284 526.202 327.284 526.357 327.439 526.512Z" fill="url(#paint29_linear_0_1)" />
	<path d="M320.769 498.905C319.218 499.836 318.288 501.232 318.753 502.628L327.128 526.047C328.214 529.304 335.038 530.389 339.07 528.063C341.862 526.512 346.36 526.512 348.996 528.063L385.754 549.466C388.545 551.017 393.043 551.017 395.68 549.466L407.777 542.487C410.569 540.936 410.569 538.299 407.777 536.748L371.02 515.345C368.228 513.794 368.228 511.158 371.02 509.607C375.052 507.28 373.036 503.403 367.452 502.783L326.973 497.82C324.802 497.354 322.475 497.975 320.769 498.905Z" fill="url(#paint30_linear_0_1)" />
	<path d="M385.909 549.465C386.219 549.621 386.529 549.776 386.84 549.931C386.995 549.931 386.995 549.931 387.15 550.086C387.305 550.086 387.615 550.241 387.77 550.241C387.925 550.241 388.235 550.396 388.546 550.396C388.856 550.396 389.166 550.551 389.476 550.551H389.631C390.097 550.551 390.407 550.551 390.872 550.551H391.027C391.492 550.551 391.803 550.551 392.268 550.551H392.423C392.733 550.551 393.198 550.396 393.509 550.396H393.664C393.974 550.241 394.284 550.241 394.594 550.086H394.749C395.06 549.931 395.525 549.776 395.835 549.621L407.932 542.641C409.328 541.866 409.948 540.78 409.948 539.695V552.412C409.948 553.498 409.328 554.584 407.932 555.359L395.835 562.338C395.525 562.493 395.215 562.648 394.749 562.804H394.594C394.439 562.804 394.129 562.959 393.974 562.959C393.819 562.959 393.664 562.959 393.664 563.114H393.509H393.353C393.198 563.114 392.888 563.269 392.578 563.269C392.423 563.269 392.423 563.269 392.268 563.269H392.113C391.958 563.269 391.958 563.269 391.803 563.269C391.647 563.269 391.337 563.269 391.182 563.269H391.027H390.872C390.717 563.269 390.717 563.269 390.562 563.269C390.252 563.269 390.097 563.269 389.786 563.269C389.786 563.269 389.786 563.269 389.631 563.269H389.476C389.321 563.269 389.011 563.269 388.856 563.114C388.701 563.114 388.701 563.114 388.546 563.114C388.235 563.114 388.08 562.959 387.77 562.959C387.615 562.959 387.46 562.959 387.46 562.804C387.305 562.804 387.305 562.804 387.15 562.648C386.995 562.648 386.995 562.648 386.84 562.493C386.529 562.338 386.219 562.183 385.909 562.028L349.152 540.625V527.907L385.909 549.465Z" fill="url(#paint31_linear_0_1)" />
	<path opacity="0.31" d="M522.7 492.236C522.7 492.391 522.7 492.391 522.7 492.546V492.701C522.7 492.857 522.7 492.857 522.7 493.012C522.7 493.012 522.7 493.167 522.855 493.167C522.855 493.322 522.855 493.322 523.01 493.477C523.01 493.477 523.01 493.632 523.165 493.632C523.165 493.787 523.32 493.787 523.32 493.942L523.475 494.097C523.63 494.252 523.63 494.407 523.785 494.407L523.941 494.563C524.096 494.563 524.096 494.718 524.251 494.718L524.406 494.873C524.561 494.873 524.561 495.028 524.716 495.028C524.871 495.028 524.871 495.183 525.026 495.183L563.024 517.361C563.334 517.516 563.8 517.671 564.11 517.982C564.265 517.982 564.265 518.137 564.42 518.137C564.73 518.292 564.885 518.292 565.195 518.447C565.506 518.447 565.661 518.602 565.971 518.602C566.281 518.602 566.591 518.757 566.901 518.757C567.057 518.757 567.057 518.757 567.212 518.757C567.677 518.757 568.142 518.757 568.608 518.757H568.763C569.228 518.757 569.693 518.757 570.158 518.757H570.314C570.779 518.757 571.244 518.602 571.709 518.602C571.864 518.602 571.864 518.602 572.02 518.602C572.485 518.447 572.795 518.447 573.105 518.292H573.26C573.726 518.137 574.191 517.982 574.501 517.671L612.809 495.493C614.36 494.563 615.291 493.322 615.291 492.081L615.446 539.85C615.446 541.091 614.67 542.331 612.964 543.262L574.656 565.44C574.346 565.595 573.881 565.906 573.415 566.061H573.26C572.95 566.216 572.795 566.216 572.485 566.371C572.33 566.371 572.175 566.371 572.02 566.526C571.864 566.526 571.864 566.526 571.709 566.526H571.554C571.244 566.526 571.089 566.681 570.779 566.681C570.624 566.681 570.624 566.681 570.469 566.681H570.314C570.158 566.681 570.158 566.681 570.003 566.681C569.693 566.681 569.538 566.681 569.228 566.681C569.073 566.681 569.073 566.681 568.918 566.681H568.763C568.608 566.681 568.452 566.681 568.452 566.681C568.142 566.681 567.832 566.681 567.522 566.681C567.522 566.681 567.522 566.681 567.367 566.681C567.212 566.681 567.212 566.681 567.057 566.681C566.746 566.681 566.591 566.681 566.281 566.526C566.126 566.526 566.126 566.526 565.971 566.526C565.661 566.526 565.351 566.371 565.195 566.371C565.04 566.371 564.885 566.371 564.73 566.216C564.575 566.216 564.575 566.061 564.42 566.061C564.265 566.061 564.265 565.906 564.11 565.906C563.645 565.751 563.334 565.595 563.024 565.285L525.026 543.107C525.026 543.107 525.026 543.107 524.871 543.107L524.716 542.952C524.561 542.952 524.561 542.797 524.406 542.797C524.251 542.797 524.251 542.642 524.251 542.642C524.096 542.642 524.096 542.486 523.941 542.486C523.941 542.486 523.941 542.486 523.785 542.331C523.63 542.176 523.475 542.021 523.475 542.021C523.475 542.021 523.475 542.021 523.475 541.866C523.475 541.866 523.475 541.866 523.475 541.711C523.475 541.556 523.32 541.556 523.32 541.401C523.32 541.401 523.32 541.246 523.165 541.246C523.165 541.091 523.01 541.091 523.01 540.936V540.78C523.01 540.625 523.01 540.625 523.01 540.47V540.315C523.01 540.16 523.01 540.16 523.01 540.005V539.85L522.855 492.081C522.545 492.081 522.545 492.081 522.7 492.236Z" fill="url(#paint32_linear_0_1)" />
	<path d="M525.026 488.514C521.769 490.375 521.769 493.322 525.026 495.183L563.024 517.362C566.281 519.223 571.399 519.223 574.656 517.362L612.964 495.183C616.221 493.322 616.221 490.375 612.964 488.514L574.966 466.336C571.709 464.475 566.591 464.475 563.334 466.336L525.026 488.514Z" fill="url(#paint33_linear_0_1)" />
	<path d="M519.907 385.222C520.062 385.067 520.217 385.067 520.217 385.067C520.217 385.067 520.217 385.067 520.372 385.067H520.527H520.682C520.682 385.067 520.682 385.067 520.837 385.067C520.992 385.067 521.147 385.067 521.303 385.067C521.303 385.067 521.303 385.067 521.458 385.067C521.613 385.067 521.613 385.067 521.768 385.067C521.768 385.067 521.768 385.067 521.923 385.067H522.078H522.233H522.388C522.543 385.067 522.543 385.067 522.698 385.067H522.854H523.009C523.164 385.067 523.319 385.222 523.474 385.222H523.629C523.629 385.222 523.629 385.222 523.784 385.222C524.094 385.377 524.249 385.532 524.56 385.687L608.93 434.387C609.241 434.542 609.551 434.852 610.016 435.007L610.171 435.162C610.481 435.472 610.792 435.627 611.102 435.938L611.257 436.093C611.412 436.248 611.567 436.403 611.722 436.558L611.877 436.713C611.877 436.713 611.877 436.868 612.032 436.868C612.187 437.023 612.187 437.023 612.343 437.178L612.498 437.333L612.653 437.489C612.653 437.644 612.808 437.644 612.808 437.799L612.963 437.954C612.963 438.109 613.118 438.109 613.118 438.264L613.273 438.419C613.428 438.574 613.428 438.729 613.583 439.039V439.195C613.583 439.35 613.738 439.505 613.738 439.66C613.738 439.66 613.738 439.815 613.893 439.815C613.893 439.815 613.893 439.97 614.049 439.97C614.049 439.97 614.049 440.125 614.204 440.125C614.204 440.28 614.359 440.435 614.359 440.59C614.359 440.59 614.359 440.59 614.359 440.745C614.514 440.901 614.514 441.211 614.669 441.366C614.669 441.366 614.669 441.366 614.669 441.521V441.676C614.669 441.831 614.669 441.831 614.824 441.986V442.141C614.824 442.296 614.824 442.296 614.979 442.452V442.607C614.979 442.762 614.979 442.762 614.979 442.917C614.979 443.072 614.979 443.072 615.134 443.227C615.134 443.227 615.134 443.227 615.134 443.382C615.134 443.537 615.134 443.537 615.134 443.692C615.134 443.847 615.134 444.002 615.289 444.158V444.313V444.468C615.289 444.778 615.289 445.243 615.289 445.553L615.134 508.987C615.134 511.003 614.359 512.554 613.273 513.174L610.016 515.035C611.257 514.415 611.877 512.864 611.877 510.848L612.032 447.415C612.032 447.104 612.032 446.639 612.032 446.329C612.032 446.174 612.032 446.174 612.032 446.019C612.032 445.864 612.032 445.708 611.877 445.553C611.877 445.398 611.877 445.243 611.877 445.243C611.877 445.088 611.877 445.088 611.722 444.933C611.722 444.778 611.567 444.623 611.567 444.468C611.567 444.313 611.567 444.313 611.412 444.158C611.412 444.002 611.257 443.847 611.257 443.692C611.257 443.692 611.257 443.537 611.102 443.537C610.947 443.227 610.947 443.072 610.792 442.762C610.792 442.762 610.792 442.762 610.792 442.607C610.637 442.452 610.637 442.141 610.481 441.986C610.481 441.986 610.481 441.831 610.326 441.831C610.171 441.676 610.171 441.366 610.016 441.211V441.056C609.861 440.901 609.706 440.59 609.551 440.435L609.396 440.28C609.241 440.125 609.241 439.97 609.086 439.815C609.086 439.66 608.93 439.66 608.93 439.505C608.775 439.35 608.775 439.195 608.62 439.195C608.465 439.039 608.465 439.039 608.31 438.884C608.155 438.729 608.155 438.729 608 438.574C607.845 438.419 607.69 438.264 607.535 438.109L607.38 437.954C607.069 437.644 606.759 437.333 606.449 437.178L606.294 437.023C605.984 436.713 605.674 436.558 605.208 436.403L520.837 387.703C520.527 387.548 520.217 387.393 520.062 387.238C519.907 387.238 519.907 387.238 519.752 387.083C519.597 387.083 519.441 386.928 519.286 386.928C519.131 386.928 519.131 386.928 518.976 386.773C518.821 386.773 518.821 386.773 518.666 386.773C518.511 386.773 518.511 386.773 518.356 386.773H518.201C518.046 386.773 517.891 386.773 517.735 386.773C517.735 386.773 517.735 386.773 517.58 386.773C517.425 386.773 517.27 386.773 517.115 386.773H516.96C516.805 386.773 516.65 386.773 516.65 386.928C516.65 386.928 516.65 386.928 516.495 386.928C516.34 386.928 516.184 387.083 516.029 387.083L519.907 385.222Z" fill="url(#paint34_linear_0_1)" />
	<path d="M521.305 387.549C517.738 385.532 514.791 387.083 514.791 391.271L514.636 454.704C514.636 458.892 517.582 463.855 521.15 466.026L605.521 514.725C609.088 516.742 612.034 515.191 612.034 511.003L612.19 447.57C612.19 443.382 609.243 438.419 605.676 436.248L521.305 387.549Z" fill="white" />
	<path d="M601.952 442.761L601.797 485.878L607.69 489.134L607.845 446.174L601.952 442.761Z" fill="url(#paint35_linear_0_1)" />
	<path d="M592.802 450.67L592.646 480.293L598.54 483.705L598.695 454.082L592.802 450.67Z" fill="url(#paint36_linear_0_1)" />
	<path d="M583.651 427.873L583.496 474.866L589.39 478.123L589.545 431.285L583.651 427.873Z" fill="url(#paint37_linear_0_1)" />
	<path d="M573.569 426.322L573.414 469.438L579.308 472.695L579.463 429.734L573.569 426.322Z" fill="url(#paint38_linear_0_1)" />
	<path d="M564.42 434.231L564.265 463.854L570.159 467.266L570.314 437.643L564.42 434.231Z" fill="url(#paint39_linear_0_1)" />
	<path d="M555.269 411.588L555.114 458.426L561.007 461.838L561.162 414.845L555.269 411.588Z" fill="url(#paint40_linear_0_1)" />
	<path d="M545.187 409.882L545.032 452.998L550.925 456.41L551.08 413.294L545.187 409.882Z" fill="url(#paint41_linear_0_1)" />
	<path d="M536.038 417.791L535.883 447.414L541.776 450.826L541.931 421.203L536.038 417.791Z" fill="url(#paint42_linear_0_1)" />
	<path d="M518.356 407.245V436.868L524.25 440.28V410.657L518.356 407.245Z" fill="url(#paint43_linear_0_1)" />
	<path d="M526.885 395.147L526.73 441.986L532.624 445.398L532.779 398.404L526.885 395.147Z" fill="url(#paint44_linear_0_1)" />
	<path d="M607.071 493.786C607.537 494.096 608.002 494.716 608.002 495.337V495.802C608.002 496.423 607.537 496.578 607.071 496.267L583.652 482.774C583.187 482.464 582.722 481.844 582.722 481.223V480.758C582.722 480.138 583.187 479.983 583.652 480.293L607.071 493.786Z" fill="#C9C6F7" />
	<path d="M606.143 497.664C606.453 497.819 606.763 498.439 606.763 498.905V499.68C606.763 500.145 606.453 500.301 606.143 500.145L591.409 491.615C591.098 491.46 590.788 490.84 590.788 490.375V489.599C590.788 489.134 591.098 488.979 591.409 489.134L606.143 497.664Z" fill="#C9C6F7" />
	<path d="M605.209 502.472C605.674 502.782 606.14 503.402 606.14 504.023V504.488C606.14 505.108 605.674 505.263 605.209 504.953L581.79 491.46C581.325 491.15 580.859 490.53 580.859 489.909V489.444C580.859 488.823 581.325 488.668 581.79 488.979L605.209 502.472Z" fill="#C9C6F7" />
	<path d="M604.278 506.35C604.588 506.505 604.899 507.125 604.899 507.59V508.366C604.899 508.831 604.588 508.986 604.278 508.831L589.544 500.301C589.234 500.146 588.924 499.525 588.924 499.06V498.285C588.924 497.819 589.234 497.664 589.544 497.819L604.278 506.35Z" fill="#C9C6F7" />
	<path d="M575.431 476.106C575.897 476.416 576.362 477.036 576.362 477.657V478.122C576.362 478.742 575.897 478.897 575.431 478.587L552.012 465.094C551.547 464.784 551.082 464.164 551.082 463.543V463.078C551.082 462.458 551.547 462.302 552.012 462.613L575.431 476.106Z" fill="#C9C6F7" />
	<path d="M574.501 480.138C574.811 480.293 575.122 480.914 575.122 481.379V482.155C575.122 482.62 574.811 482.775 574.501 482.62L559.767 474.09C559.457 473.935 559.147 473.314 559.147 472.849V472.073C559.147 471.608 559.457 471.453 559.767 471.608L574.501 480.138Z" fill="#C9C6F7" />
	<path d="M573.416 484.792C573.881 485.102 574.347 485.722 574.347 486.343V486.808C574.347 487.428 573.881 487.583 573.416 487.273L549.997 473.78C549.532 473.47 549.066 472.85 549.066 472.229V471.764C549.066 471.144 549.532 470.988 549.997 471.299L573.416 484.792Z" fill="#C9C6F7" />
	<path d="M572.64 488.823C572.95 488.978 573.26 489.599 573.26 490.064V490.839C573.26 491.305 572.95 491.46 572.64 491.305L557.906 482.775C557.596 482.619 557.286 481.999 557.286 481.534V480.758C557.286 480.293 557.596 480.138 557.906 480.293L572.64 488.823Z" fill="#C9C6F7" />
	<path d="M543.638 457.339C544.103 457.65 544.568 458.27 544.568 458.89V459.356C544.568 459.976 544.103 460.131 543.638 459.821L520.219 446.328C519.753 446.018 519.288 445.397 519.288 444.777V444.312C519.288 443.691 519.753 443.536 520.219 443.846L543.638 457.339Z" fill="#C9C6F7" />
	<path d="M542.863 461.372C543.173 461.527 543.483 462.147 543.483 462.613V463.388C543.483 463.853 543.173 464.008 542.863 463.853L528.129 455.323C527.819 455.168 527.509 454.548 527.509 454.082V453.307C527.509 452.842 527.819 452.687 528.129 452.842L542.863 461.372Z" fill="#C9C6F7" />
	<path d="M541.776 466.025C542.241 466.335 542.706 466.955 542.706 467.576V468.041C542.706 468.661 542.241 468.816 541.776 468.506L518.356 455.013C517.891 454.703 517.426 454.082 517.426 453.462V452.997C517.426 452.376 517.891 452.221 518.356 452.532L541.776 466.025Z" fill="#C9C6F7" />
	<path d="M540.845 470.056C541.155 470.211 541.465 470.832 541.465 471.297V472.073C541.465 472.538 541.155 472.693 540.845 472.538L526.111 464.008C525.801 463.853 525.49 463.232 525.49 462.767V461.991C525.49 461.526 525.801 461.371 526.111 461.526L540.845 470.056Z" fill="#C9C6F7" />
	<path d="M507.968 427.253C507.968 423.221 509.519 421.205 511.225 420.739C513.086 420.274 511.535 422.445 512.466 426.323C512.466 426.478 512.466 426.478 512.466 426.633C513.707 424.927 514.792 423.841 515.257 424.152C515.878 424.462 515.257 426.633 513.862 428.804C513.396 429.735 512.931 430.665 512.621 431.441C512.621 431.751 512.466 431.906 512.466 432.216L512.621 437.645L508.123 437.024L509.519 432.527C508.744 431.441 507.968 429.425 507.968 427.253Z" fill="url(#paint45_linear_0_1)" />
	<path d="M536.659 461.839C536.815 460.754 537.745 458.582 538.365 457.031C538.986 454.86 540.071 453.309 540.537 453.464C541.002 453.619 541.002 455.481 540.227 457.652C543.018 455.636 546.275 454.705 547.206 456.101C548.291 457.497 547.206 460.599 544.414 462.46C543.173 463.39 541.002 464.011 539.606 464.476C537.745 465.096 538.831 468.508 536.349 464.476C535.108 462.77 535.884 462.77 536.659 461.839Z" fill="url(#paint46_linear_0_1)" />
	<path d="M495.092 582.192C495.092 584.208 495.092 585.294 498.815 585.138L513.548 584.828C514.944 584.518 516.96 583.743 516.805 582.192C516.65 580.641 514.789 580.175 513.393 579.865C510.136 579.245 506.724 578.78 503.312 578.314C502.382 578.159 501.451 578.004 500.521 578.004C494.317 578.004 495.092 580.175 495.092 582.192Z" fill="#1A1A1A" />
	<path d="M480.206 575.368C483.773 578.16 494.009 566.528 494.63 565.908C495.405 564.977 497.266 559.704 491.373 562.495C488.581 563.891 486.1 565.752 483.618 567.458C482.998 567.924 482.067 568.389 481.447 568.854C479.896 570.25 478.035 572.111 479.275 574.283C479.586 574.903 479.896 575.213 480.206 575.368Z" fill="#1A1A1A" />
	<path d="M505.021 512.711C505.021 512.711 506.416 558.773 505.021 578.47C505.021 578.47 500.368 582.037 494.164 582.037C494.164 582.037 491.683 535.354 491.372 528.84C491.372 528.84 490.287 516.743 489.046 544.039C489.046 544.039 488.27 562.651 487.805 566.683C487.805 566.683 482.997 574.903 478.5 572.732C478.5 572.732 478.5 524.343 479.895 503.095L505.021 512.711Z" fill="url(#paint47_linear_0_1)" />
	<path d="M513.55 435.164C513.55 435.164 510.758 449.432 507.346 454.86C507.346 454.86 499.902 462.305 478.809 467.733L483.152 459.203C483.152 459.203 498.041 451.293 502.848 448.346C502.848 448.346 507.036 438.886 509.362 432.992C509.362 432.837 512.309 433.457 513.55 435.164Z" fill="url(#paint48_linear_0_1)" />
	<path d="M479.895 473.006C479.429 491.462 478.034 509.143 478.034 509.143C490.441 524.032 506.881 514.881 506.881 514.881C505.951 502.784 504.089 477.659 504.089 477.659C525.492 480.916 525.492 478.744 525.492 478.744C529.525 475.798 538.365 467.112 538.365 467.112C538.365 467.112 538.675 461.529 534.178 462.459C534.178 462.459 525.647 468.353 522.235 469.284C522.235 469.284 499.281 467.578 497.575 466.492C495.714 460.753 484.548 461.994 484.548 461.994L489.976 461.529L486.874 456.721C486.874 456.721 474.777 455.17 475.707 466.337C475.707 466.492 476.948 470.369 479.895 473.006Z" fill="url(#paint49_linear_0_1)" />
	<path d="M480.207 448.036C480.207 442.453 484.549 437.955 489.667 437.955C494.941 437.955 499.128 442.608 499.128 448.191C499.128 453.775 499.128 459.668 494.01 459.668C493.39 459.668 492.769 459.513 492.149 459.358L492.614 463.235C492.614 463.235 487.186 467.423 484.704 461.995V455.481C482.068 453.464 480.207 450.673 480.207 448.036Z" fill="url(#paint50_linear_0_1)" />
	<path d="M484.393 459.978C484.393 459.978 486.099 463.235 492.458 461.684C492.458 461.684 497.576 461.684 497.576 466.647C497.576 466.647 496.646 464.321 493.389 464.941C493.389 464.941 478.81 468.508 484.393 459.978Z" fill="white" />
	<path d="M478.653 445.4C478.187 444.159 477.257 443.073 477.567 441.677C478.032 439.041 481.134 439.351 482.375 437.49C482.995 436.714 482.84 435.629 484.081 435.319C485.167 435.008 486.563 435.474 487.803 435.319C490.13 435.008 493.232 431.907 495.403 433.923C496.178 434.543 496.178 435.939 496.644 436.714C497.264 437.8 498.039 437.8 498.97 438.265C502.072 440.127 499.125 444.624 496.954 446.02C495.713 446.796 494.007 446.485 492.921 447.726C492.611 448.036 492.766 448.657 492.921 449.122C493.076 449.742 493.076 451.759 493.542 452.224C492.921 451.448 492.301 450.673 491.681 449.897C491.37 449.432 490.595 448.191 489.819 448.657C488.269 449.432 490.285 453.775 490.595 454.86C491.06 456.877 491.06 459.203 488.889 459.979C487.803 460.444 486.407 460.134 485.477 459.358C485.012 459.048 484.546 458.428 484.391 457.962C483.771 456.411 483.926 454.55 482.375 453.465C481.444 452.844 480.359 452.534 479.583 451.759C477.722 450.208 479.273 447.571 478.653 445.4Z" fill="url(#paint51_linear_0_1)" />
	<path d="M317.889 293.067C309.669 297.875 303 309.352 303 318.968C303 326.412 307.032 330.29 312.771 329.514L317.734 334.788L323.317 323.311C328.901 317.572 332.933 309.042 332.933 301.597C332.933 292.137 326.109 288.259 317.889 293.067Z" fill="url(#paint52_linear_0_1)" />
	<path d="M323.628 299.427C323.628 299.427 323.783 299.427 323.783 299.272C326.109 298.031 328.436 299.737 328.436 302.374C328.436 307.802 323.628 314.781 320.061 319.434C319.906 319.589 318.975 320.985 318.51 321.295C316.804 321.14 315.253 320.83 313.702 320.054C311.22 318.969 308.584 316.952 309.359 312.3C309.669 310.593 310.29 308.422 311.686 307.026C312.306 306.406 313.081 305.63 313.857 305.165C314.632 304.7 315.253 304.545 315.873 304.545C316.493 304.545 317.889 304.39 319.13 306.871C319.595 303.769 321.146 300.823 323.628 299.427Z" fill="white" />
	<path d="M404.889 243.067C396.669 247.875 390 259.352 390 268.968C390 276.412 394.032 280.29 399.771 279.514L404.734 284.788L410.317 273.311C415.901 267.572 419.933 259.042 419.933 251.597C419.778 242.137 413.109 238.259 404.889 243.067Z" fill="url(#paint53_linear_0_1)" />
	<path d="M398.067 263.695V261.524L401.013 259.818L399.773 255.01L401.944 253.769L403.185 258.577L406.752 256.561L405.511 251.753L407.682 250.512L408.923 255.32L412.49 253.304V255.475L409.389 257.181L410.319 261.059L413.576 259.198V261.524L410.784 263.075L412.025 267.883L409.854 269.124L408.768 264.316L405.201 266.332L406.442 271.14L404.27 272.381L403.03 267.573L399.307 269.744V267.418L402.564 265.557L401.634 261.679L398.067 263.695ZM404.581 264.471L408.148 262.455L407.217 258.577L403.65 260.594L404.581 264.471Z" fill="white" />
	<path d="M363.889 267.999C355.669 272.807 349 284.439 349 293.9C349 301.344 353.032 305.222 358.771 304.446L363.734 309.719L369.317 298.243C374.901 292.504 378.933 283.974 378.933 276.529C378.778 267.069 372.109 263.346 363.889 267.999Z" fill="url(#paint54_linear_0_1)" />
	<path d="M363.424 272.186V275.288C361.718 276.529 360.478 278.235 359.547 279.941L360.788 280.872C361.873 279.166 362.649 277.925 364.2 277.149C365.906 276.219 366.992 276.684 366.992 278.545C366.992 283.198 359.237 286.3 359.237 293.124C359.237 296.071 360.943 297.312 363.58 296.226V299.483L365.286 298.552V295.45C366.992 294.21 368.853 292.193 369.938 290.332L368.853 289.092C367.612 290.953 366.216 292.659 364.51 293.744C362.494 294.985 361.408 294.21 361.408 292.193C361.408 287.075 369.163 283.663 369.163 277.46C369.163 274.668 367.612 273.582 365.13 274.513V271.256L363.424 272.186Z" fill="white" />
	<path d="M358.301 404.297C358.301 404.297 366.986 411.277 371.483 421.047C371.483 421.047 374.896 427.561 358.921 442.14L357.525 439.193L364.194 425.08L353.027 409.571L358.301 404.297Z" fill="url(#paint55_linear_0_1)" />
	<path d="M333.175 445.242C333.175 446.638 335.657 448.965 337.983 448.965C340.309 448.965 340.775 446.173 340.775 444.932C340.775 443.536 339.534 443.381 337.208 443.381C334.726 443.226 333.175 443.846 333.175 445.242Z" fill="url(#paint56_linear_0_1)" />
	<path d="M346.048 514.725C346.048 516.586 346.048 517.672 342.636 517.361L328.987 517.051C327.747 516.741 325.885 516.121 326.041 514.57C326.196 513.019 327.902 512.709 329.297 512.554C332.399 512.088 335.501 511.623 338.603 511.158C339.379 511.003 340.309 510.848 341.24 510.848C346.823 510.692 346.048 512.709 346.048 514.725Z" fill="#232326" />
	<path d="M359.852 508.365C356.595 511.002 347.135 500.145 346.514 499.525C345.894 498.594 344.033 493.786 349.616 496.423C352.253 497.664 354.424 499.37 356.906 501.076C357.526 501.541 358.301 501.851 358.767 502.471C360.162 503.712 361.869 505.418 360.783 507.59C360.473 507.9 360.162 508.21 359.852 508.365Z" fill="#232326" />
	<path d="M337.208 450.051C337.208 450.051 335.657 492.702 336.897 511.003C336.897 511.003 341.24 514.415 346.978 514.415C346.978 514.415 349.46 471.144 349.77 465.095C349.77 465.095 350.856 453.928 351.786 479.208C351.786 479.208 352.407 496.424 352.872 500.301C352.872 500.301 357.37 507.901 361.402 505.884C361.402 505.884 361.712 461.062 360.472 441.21L337.208 450.051Z" fill="url(#paint57_linear_0_1)" />
	<path d="M341.705 389.099C341.705 383.515 345.427 379.018 350.08 379.018C354.733 379.018 359.541 383.515 359.541 389.099C359.541 391.735 358.3 394.527 356.594 396.543V403.057C353.182 408.485 348.529 404.298 348.529 404.298L348.374 400.421C347.753 400.576 346.978 400.576 346.358 400.576C341.86 400.576 341.705 394.682 341.705 389.099Z" fill="url(#paint58_linear_0_1)" />
	<path d="M336.433 443.382C336.588 443.692 335.503 445.398 336.744 444.778C337.984 444.157 341.707 443.382 341.241 442.451C341.086 442.141 339.69 441.831 338.45 442.296C337.209 442.916 336.278 443.072 336.433 443.382Z" fill="url(#paint59_linear_0_1)" />
	<path d="M326.195 432.37C327.436 429.578 328.832 426.786 330.383 423.995C332.244 420.427 335.035 413.914 338.913 409.881C339.998 408.64 345.427 406.779 346.202 405.849C347.133 404.918 347.443 404.453 347.443 404.298C347.443 404.298 347.753 404.453 349.459 403.988C351.165 403.522 354.732 402.437 356.438 403.212C356.438 403.212 361.091 405.694 362.177 410.812C362.332 411.897 360.781 411.897 360.781 413.448L362.177 447.569C350.545 461.217 335.811 454.238 335.811 454.238C336.741 442.916 339.378 421.358 339.378 421.358C338.758 422.444 337.982 424.15 337.207 425.701C335.501 429.113 333.795 432.835 333.64 433.455V433.61C333.019 434.541 336.276 442.761 336.276 442.761C336.276 442.761 335.966 444.467 335.191 445.553C334.725 446.173 334.105 446.638 333.329 446.328C333.329 446.483 324.179 434.696 326.195 432.37Z" fill="url(#paint60_linear_0_1)" />
	<path d="M357.678 401.661C357.678 401.661 355.042 404.297 349.148 402.747C349.148 402.747 344.03 403.367 344.03 407.865C344.03 407.865 345.271 405.073 348.373 405.693C348.218 405.848 362.641 410.036 357.678 401.661Z" fill="url(#paint61_linear_0_1)" />
	<path d="M350.703 388.014C350.703 388.014 342.793 390.65 342.018 386.463C341.397 382.275 346.36 380.104 346.36 380.104C346.36 380.104 344.809 377.467 347.291 376.382C350.548 374.676 354.115 380.104 354.115 380.104C354.115 380.104 353.184 377.467 356.596 377.467C360.164 377.467 357.837 383.361 357.837 383.361C357.837 383.361 361.404 383.361 362.49 390.34C363.731 397.319 356.596 397.319 356.596 397.319C356.596 397.319 354.27 398.56 353.029 394.993C351.788 391.426 357.682 391.426 355.356 388.014C353.029 384.446 353.029 392.666 351.788 391.581C350.703 390.34 350.703 388.014 350.703 388.014Z" fill="url(#paint62_linear_0_1)" />
	<defs>
		<linearGradient id="paint0_linear_0_1" x1="873" y1="312.5" x2="-25.132" y2="303.034" gradientUnits="userSpaceOnUse">
			<stop stop-color="white" />
			<stop offset="1" stop-color="white" stop-opacity="0" />
		</linearGradient>
		<linearGradient id="paint1_linear_0_1" x1="568.128" y1="228.555" x2="-69.0046" y2="613.123" gradientUnits="userSpaceOnUse">
			<stop stop-color="#CDC6FF" />
			<stop offset="1" stop-color="white" />
		</linearGradient>
		<linearGradient id="paint2_linear_0_1" x1="518.182" y1="215.074" x2="484.099" y2="215.074" gradientUnits="userSpaceOnUse">
			<stop stop-color="#441098" />
			<stop offset="1" stop-color="#642DE6" />
		</linearGradient>
		<linearGradient id="paint3_linear_0_1" x1="518.184" y1="268.127" x2="490.779" y2="268.127" gradientUnits="userSpaceOnUse">
			<stop stop-color="#441098" />
			<stop offset="1" stop-color="#642DE6" />
		</linearGradient>
		<linearGradient id="paint4_linear_0_1" x1="518.185" y1="327.128" x2="494.188" y2="327.128" gradientUnits="userSpaceOnUse">
			<stop stop-color="#441098" />
			<stop offset="1" stop-color="#642DE6" />
		</linearGradient>
		<linearGradient id="paint5_linear_0_1" x1="430.248" y1="405.099" x2="307.889" y2="405.099" gradientUnits="userSpaceOnUse">
			<stop stop-color="#441098" />
			<stop offset="1" stop-color="#642DE6" />
		</linearGradient>
		<linearGradient id="paint6_linear_0_1" x1="647.726" y1="346.76" x2="605.649" y2="346.76" gradientUnits="userSpaceOnUse">
			<stop offset="0.0139665" stop-color="#4F0096" />
			<stop offset="1" stop-color="#932EF0" />
		</linearGradient>
		<linearGradient id="paint7_linear_0_1" x1="707.072" y1="301.066" x2="637.385" y2="301.066" gradientUnits="userSpaceOnUse">
			<stop offset="0.0139665" stop-color="#4F0096" />
			<stop offset="1" stop-color="#932EF0" />
		</linearGradient>
		<linearGradient id="paint8_linear_0_1" x1="698.813" y1="266.286" x2="590.724" y2="266.286" gradientUnits="userSpaceOnUse">
			<stop stop-color="#441098" />
			<stop offset="1" stop-color="#642DE6" />
		</linearGradient>
		<linearGradient id="paint9_linear_0_1" x1="714.446" y1="272.9" x2="607.264" y2="272.9" gradientUnits="userSpaceOnUse">
			<stop stop-color="#F736E3" />
			<stop offset="1" stop-color="#69B6EB" />
		</linearGradient>
		<linearGradient id="paint10_linear_0_1" x1="695.757" y1="272.788" x2="625.839" y2="272.788" gradientUnits="userSpaceOnUse">
			<stop stop-color="#441098" />
			<stop offset="1" stop-color="#642DE6" />
		</linearGradient>
		<linearGradient id="paint11_linear_0_1" x1="669.95" y1="272.785" x2="651.641" y2="272.785" gradientUnits="userSpaceOnUse">
			<stop stop-color="#F736E3" />
			<stop offset="1" stop-color="#69B6EB" />
		</linearGradient>
		<linearGradient id="paint12_linear_0_1" x1="808.901" y1="479.214" x2="716.007" y2="479.214" gradientUnits="userSpaceOnUse">
			<stop offset="0.0139665" stop-color="#4F0096" />
			<stop offset="1" stop-color="#932EF0" />
		</linearGradient>
		<linearGradient id="paint13_linear_0_1" x1="808.764" y1="441.885" x2="716.006" y2="441.885" gradientUnits="userSpaceOnUse">
			<stop stop-color="white" />
			<stop offset="1" stop-color="white" />
		</linearGradient>
		<linearGradient id="paint14_linear_0_1" x1="712.765" y1="497.2" x2="698.957" y2="497.2" gradientUnits="userSpaceOnUse">
			<stop offset="0.0139665" stop-color="#4F0096" />
			<stop offset="1" stop-color="#932EF0" />
		</linearGradient>
		<linearGradient id="paint15_linear_0_1" x1="743.037" y1="462.347" x2="708.051" y2="462.347" gradientUnits="userSpaceOnUse">
			<stop stop-color="#441098" />
			<stop offset="1" stop-color="#642DE6" />
		</linearGradient>
		<linearGradient id="paint16_linear_0_1" x1="721.1" y1="501.755" x2="707.292" y2="501.755" gradientUnits="userSpaceOnUse">
			<stop offset="0.0139665" stop-color="#4F0096" />
			<stop offset="1" stop-color="#932EF0" />
		</linearGradient>
		<linearGradient id="paint17_linear_0_1" x1="761.749" y1="465.454" x2="716.304" y2="465.454" gradientUnits="userSpaceOnUse">
			<stop stop-color="#441098" />
			<stop offset="1" stop-color="#642DE6" />
		</linearGradient>
		<linearGradient id="paint18_linear_0_1" x1="748.886" y1="401.382" x2="734.805" y2="401.382" gradientUnits="userSpaceOnUse">
			<stop offset="0.0139665" stop-color="#4F0096" />
			<stop offset="1" stop-color="#932EF0" />
		</linearGradient>
		<linearGradient id="paint19_linear_0_1" x1="743.883" y1="426.474" x2="713.918" y2="426.474" gradientUnits="userSpaceOnUse">
			<stop stop-color="#CDC6FF" />
			<stop offset="1" stop-color="white" />
		</linearGradient>
		<linearGradient id="paint20_linear_0_1" x1="747.463" y1="409.716" x2="732.584" y2="409.716" gradientUnits="userSpaceOnUse">
			<stop stop-color="#F736E3" />
			<stop offset="1" stop-color="#69B6EB" />
		</linearGradient>
		<linearGradient id="paint21_linear_0_1" x1="764.456" y1="420.413" x2="736.421" y2="420.413" gradientUnits="userSpaceOnUse">
			<stop stop-color="#F736E3" />
			<stop offset="1" stop-color="#69B6EB" />
		</linearGradient>
		<linearGradient id="paint22_linear_0_1" x1="760.2" y1="389.945" x2="741.734" y2="389.945" gradientUnits="userSpaceOnUse">
			<stop stop-color="#CDC6FF" />
			<stop offset="1" stop-color="white" />
		</linearGradient>
		<linearGradient id="paint23_linear_0_1" x1="762.641" y1="434.342" x2="716.522" y2="434.342" gradientUnits="userSpaceOnUse">
			<stop stop-color="#CDC6FF" />
			<stop offset="1" stop-color="white" />
		</linearGradient>
		<linearGradient id="paint24_linear_0_1" x1="770.072" y1="398.668" x2="745.127" y2="398.668" gradientUnits="userSpaceOnUse">
			<stop offset="0.0139665" stop-color="#4F0096" />
			<stop offset="1" stop-color="#932EF0" />
		</linearGradient>
		<linearGradient id="paint25_linear_0_1" x1="746.481" y1="382.072" x2="740.344" y2="382.072" gradientUnits="userSpaceOnUse">
			<stop offset="0.0139665" stop-color="#4F0096" />
			<stop offset="1" stop-color="#932EF0" />
		</linearGradient>
		<linearGradient id="paint26_linear_0_1" x1="373.377" y1="515.879" x2="369.163" y2="515.879" gradientUnits="userSpaceOnUse">
			<stop stop-color="#441098" />
			<stop offset="1" stop-color="#642DE6" />
		</linearGradient>
		<linearGradient id="paint27_linear_0_1" x1="373.377" y1="515.879" x2="369.163" y2="515.879" gradientUnits="userSpaceOnUse">
			<stop stop-color="#441098" />
			<stop offset="1" stop-color="#642DE6" />
		</linearGradient>
		<linearGradient id="paint28_linear_0_1" x1="327.232" y1="520.651" x2="318.875" y2="520.651" gradientUnits="userSpaceOnUse">
			<stop stop-color="#441098" />
			<stop offset="1" stop-color="#642DE6" />
		</linearGradient>
		<linearGradient id="paint29_linear_0_1" x1="349.129" y1="534.007" x2="327.196" y2="534.007" gradientUnits="userSpaceOnUse">
			<stop stop-color="#441098" />
			<stop offset="1" stop-color="#642DE6" />
		</linearGradient>
		<linearGradient id="paint30_linear_0_1" x1="410.016" y1="524.133" x2="318.727" y2="524.133" gradientUnits="userSpaceOnUse">
			<stop stop-color="white" />
			<stop offset="1" stop-color="white" />
		</linearGradient>
		<linearGradient id="paint31_linear_0_1" x1="410.053" y1="545.712" x2="349.092" y2="545.712" gradientUnits="userSpaceOnUse">
			<stop stop-color="#441098" />
			<stop offset="1" stop-color="#642DE6" />
		</linearGradient>
		<linearGradient id="paint32_linear_0_1" x1="615.497" y1="529.27" x2="522.603" y2="529.27" gradientUnits="userSpaceOnUse">
			<stop offset="0.0139665" stop-color="#4F0096" />
			<stop offset="1" stop-color="#932EF0" />
		</linearGradient>
		<linearGradient id="paint33_linear_0_1" x1="615.361" y1="491.938" x2="522.602" y2="491.938" gradientUnits="userSpaceOnUse">
			<stop stop-color="#CDC6FF" />
			<stop offset="1" stop-color="white" />
		</linearGradient>
		<linearGradient id="paint34_linear_0_1" x1="615.384" y1="449.92" x2="516.599" y2="449.92" gradientUnits="userSpaceOnUse">
			<stop stop-color="#CDC6FF" />
			<stop offset="1" stop-color="white" />
		</linearGradient>
		<linearGradient id="paint35_linear_0_1" x1="608.389" y1="467.233" x2="529.229" y2="439.468" gradientUnits="userSpaceOnUse">
			<stop stop-color="#F736E3" />
			<stop offset="1" stop-color="#69B6EB" />
		</linearGradient>
		<linearGradient id="paint36_linear_0_1" x1="607.021" y1="471.133" x2="527.862" y2="443.368" gradientUnits="userSpaceOnUse">
			<stop stop-color="#F736E3" />
			<stop offset="1" stop-color="#69B6EB" />
		</linearGradient>
		<linearGradient id="paint37_linear_0_1" x1="610.415" y1="461.456" x2="531.256" y2="433.691" gradientUnits="userSpaceOnUse">
			<stop stop-color="#F736E3" />
			<stop offset="1" stop-color="#69B6EB" />
		</linearGradient>
		<linearGradient id="paint38_linear_0_1" x1="610.41" y1="461.47" x2="531.25" y2="433.705" gradientUnits="userSpaceOnUse">
			<stop stop-color="#F736E3" />
			<stop offset="1" stop-color="#69B6EB" />
		</linearGradient>
		<linearGradient id="paint39_linear_0_1" x1="609.041" y1="465.374" x2="529.882" y2="437.61" gradientUnits="userSpaceOnUse">
			<stop stop-color="#F736E3" />
			<stop offset="1" stop-color="#69B6EB" />
		</linearGradient>
		<linearGradient id="paint40_linear_0_1" x1="612.436" y1="455.694" x2="533.276" y2="427.929" gradientUnits="userSpaceOnUse">
			<stop stop-color="#F736E3" />
			<stop offset="1" stop-color="#69B6EB" />
		</linearGradient>
		<linearGradient id="paint41_linear_0_1" x1="612.431" y1="455.706" x2="533.272" y2="427.941" gradientUnits="userSpaceOnUse">
			<stop stop-color="#F736E3" />
			<stop offset="1" stop-color="#69B6EB" />
		</linearGradient>
		<linearGradient id="paint42_linear_0_1" x1="611.063" y1="459.609" x2="531.904" y2="431.844" gradientUnits="userSpaceOnUse">
			<stop stop-color="#F736E3" />
			<stop offset="1" stop-color="#69B6EB" />
		</linearGradient>
		<linearGradient id="paint43_linear_0_1" x1="612.432" y1="455.702" x2="533.273" y2="427.938" gradientUnits="userSpaceOnUse">
			<stop stop-color="#F736E3" />
			<stop offset="1" stop-color="#69B6EB" />
		</linearGradient>
		<linearGradient id="paint44_linear_0_1" x1="614.456" y1="449.93" x2="535.296" y2="422.165" gradientUnits="userSpaceOnUse">
			<stop stop-color="#F736E3" />
			<stop offset="1" stop-color="#69B6EB" />
		</linearGradient>
		<linearGradient id="paint45_linear_0_1" x1="515.693" y1="429.207" x2="508.029" y2="429.207" gradientUnits="userSpaceOnUse">
			<stop stop-color="#CDC6FF" />
			<stop offset="1" stop-color="white" />
		</linearGradient>
		<linearGradient id="paint46_linear_0_1" x1="547.6" y1="460.002" x2="535.691" y2="460.002" gradientUnits="userSpaceOnUse">
			<stop stop-color="#CDC6FF" />
			<stop offset="1" stop-color="white" />
		</linearGradient>
		<linearGradient id="paint47_linear_0_1" x1="505.623" y1="542.454" x2="478.651" y2="542.454" gradientUnits="userSpaceOnUse">
			<stop offset="0.0139665" stop-color="#4F0096" />
			<stop offset="1" stop-color="#932EF0" />
		</linearGradient>
		<linearGradient id="paint48_linear_0_1" x1="513.49" y1="450.221" x2="478.785" y2="450.221" gradientUnits="userSpaceOnUse">
			<stop stop-color="#441098" />
			<stop offset="1" stop-color="#642DE6" />
		</linearGradient>
		<linearGradient id="paint49_linear_0_1" x1="538.449" y1="487.241" x2="475.62" y2="487.241" gradientUnits="userSpaceOnUse">
			<stop stop-color="#441098" />
			<stop offset="1" stop-color="#642DE6" />
		</linearGradient>
		<linearGradient id="paint50_linear_0_1" x1="499.117" y1="451.443" x2="480.219" y2="451.443" gradientUnits="userSpaceOnUse">
			<stop stop-color="#CDC6FF" />
			<stop offset="1" stop-color="white" />
		</linearGradient>
		<linearGradient id="paint51_linear_0_1" x1="500.158" y1="446.935" x2="477.491" y2="446.935" gradientUnits="userSpaceOnUse">
			<stop stop-color="#441098" />
			<stop offset="1" stop-color="#642DE6" />
		</linearGradient>
		<linearGradient id="paint52_linear_0_1" x1="332.916" y1="312.832" x2="302.95" y2="312.832" gradientUnits="userSpaceOnUse">
			<stop stop-color="#441098" />
			<stop offset="1" stop-color="#642DE6" />
		</linearGradient>
		<linearGradient id="paint53_linear_0_1" x1="419.865" y1="262.892" x2="389.899" y2="262.892" gradientUnits="userSpaceOnUse">
			<stop stop-color="#441098" />
			<stop offset="1" stop-color="#642DE6" />
		</linearGradient>
		<linearGradient id="paint54_linear_0_1" x1="378.852" y1="287.905" x2="348.886" y2="287.905" gradientUnits="userSpaceOnUse">
			<stop offset="0.0139665" stop-color="#4F0096" />
			<stop offset="1" stop-color="#932EF0" />
		</linearGradient>
		<linearGradient id="paint55_linear_0_1" x1="353.899" y1="414.786" x2="376.978" y2="448.099" gradientUnits="userSpaceOnUse">
			<stop offset="0.0139665" stop-color="#4F0096" />
			<stop offset="1" stop-color="#932EF0" />
		</linearGradient>
		<linearGradient id="paint56_linear_0_1" x1="340.704" y1="446.072" x2="333.159" y2="446.072" gradientUnits="userSpaceOnUse">
			<stop stop-color="#CDC6FF" />
			<stop offset="1" stop-color="white" />
		</linearGradient>
		<linearGradient id="paint57_linear_0_1" x1="361.39" y1="477.803" x2="336.438" y2="477.803" gradientUnits="userSpaceOnUse">
			<stop stop-color="#441098" />
			<stop offset="1" stop-color="#642DE6" />
		</linearGradient>
		<linearGradient id="paint58_linear_0_1" x1="359.613" y1="392.367" x2="341.7" y2="392.367" gradientUnits="userSpaceOnUse">
			<stop stop-color="#CDC6FF" />
			<stop offset="1" stop-color="white" />
		</linearGradient>
		<linearGradient id="paint59_linear_0_1" x1="341.142" y1="443.515" x2="336.075" y2="443.515" gradientUnits="userSpaceOnUse">
			<stop stop-color="#CDC6FF" />
			<stop offset="1" stop-color="white" />
		</linearGradient>
		<linearGradient id="paint60_linear_0_1" x1="362.211" y1="429.544" x2="325.922" y2="429.544" gradientUnits="userSpaceOnUse">
			<stop offset="0.0139665" stop-color="#4F0096" />
			<stop offset="1" stop-color="#932EF0" />
		</linearGradient>
		<linearGradient id="paint61_linear_0_1" x1="358.662" y1="404.848" x2="343.979" y2="404.848" gradientUnits="userSpaceOnUse">
			<stop offset="0.0139665" stop-color="#4F0096" />
			<stop offset="1" stop-color="#932EF0" />
		</linearGradient>
		<linearGradient id="paint62_linear_0_1" x1="362.585" y1="386.715" x2="341.946" y2="386.715" gradientUnits="userSpaceOnUse">
			<stop stop-color="#441098" />
			<stop offset="1" stop-color="#642DE6" />
		</linearGradient>
	</defs>
</svg>
