<svg width="128" height="128" viewBox="0 0 128 128" fill="none" xmlns="http://www.w3.org/2000/svg">
<path d="M44.025 104.153H41.1C17.7 104.153 6 98.32 6 69.1575V39.995C6 16.665 17.7 5 41.1 5H87.9C111.3 5 123 16.665 123 39.995V69.1575C123 92.4875 111.3 104.153 87.9 104.153H84.975C83.1615 104.153 81.4065 105.027 80.295 106.486L71.52 118.151C67.659 123.283 61.341 123.283 57.48 118.151L48.705 106.486C47.769 105.202 45.6045 104.153 44.025 104.153Z" stroke="#464646" stroke-width="9" stroke-miterlimit="10" stroke-linecap="round" stroke-linejoin="round"/>
<path d="M84.475 30C85.725 30 86.775 30.45 87.625 31.35C88.525 32.2 88.975 33.25 88.975 34.5C88.975 35.75 88.525 36.825 87.625 37.725C86.775 38.575 85.725 39 84.475 39H69.25V86.55C69.25 87.8 68.75 88.875 67.75 89.775C66.8 90.625 65.675 91.05 64.375 91.05C63.075 91.05 61.95 90.625 61 89.775C60.05 88.875 59.575 87.8 59.575 86.55V39H44.275C43.025 39 41.95 38.575 41.05 37.725C40.2 36.825 39.775 35.75 39.775 34.5C39.775 33.25 40.2 32.2 41.05 31.35C41.95 30.45 43.025 30 44.275 30H84.475Z" fill="#4169E1"/>
</svg>
