<svg width="128" height="128" viewBox="0 0 128 128" fill="none" xmlns="http://www.w3.org/2000/svg">
<rect width="128" height="128" fill="white"/>
<path d="M86.64 30C87.9733 30 89.0933 30.48 90 31.44C90.96 32.3467 91.44 33.4667 91.44 34.8C91.44 36.1333 90.96 37.28 90 38.24C89.0933 39.1467 87.9733 39.6 86.64 39.6H70.4V90.32C70.4 91.6533 69.8667 92.8 68.8 93.76C67.7867 94.6667 66.5867 95.12 65.2 95.12C63.8133 95.12 62.6133 94.6667 61.6 93.76C60.5867 92.8 60.08 91.6533 60.08 90.32V39.6H43.76C42.4267 39.6 41.28 39.1467 40.32 38.24C39.4133 37.28 38.96 36.1333 38.96 34.8C38.96 33.4667 39.4133 32.3467 40.32 31.44C41.28 30.48 42.4267 30 43.76 30H86.64Z" fill="black"/>
<path d="M44.025 104.153H41.1C17.7 104.153 6 98.32 6 69.1575V39.995C6 16.665 17.7 5 41.1 5H87.9C111.3 5 123 16.665 123 39.995V69.1575C123 92.4875 111.3 104.153 87.9 104.153H84.975C83.1615 104.153 81.4065 105.027 80.295 106.486L71.52 118.151C67.659 123.283 61.341 123.283 57.48 118.151L48.705 106.486C47.769 105.202 45.6045 104.153 44.025 104.153Z" stroke="#292D32" stroke-width="9" stroke-miterlimit="10" stroke-linecap="round" stroke-linejoin="round"/>
</svg>
