<svg width="128" height="128" viewBox="0 0 128 128" fill="none" xmlns="http://www.w3.org/2000/svg">
<path d="M44.025 104.153H41.1C17.7 104.153 6 98.32 6 69.1575V39.995C6 16.665 17.7 5 41.1 5H87.9C111.3 5 123 16.665 123 39.995V69.1575C123 92.4875 111.3 104.153 87.9 104.153H84.975C83.1615 104.153 81.4065 105.027 80.295 106.486L71.52 118.151C67.659 123.283 61.341 123.283 57.48 118.151L48.705 106.486C47.769 105.202 45.6045 104.153 44.025 104.153Z" stroke="#292D32" stroke-width="9" stroke-miterlimit="10" stroke-linecap="round" stroke-linejoin="round"/>
<path d="M85.64 27C86.9733 27 88.0933 27.48 89 28.44C89.96 29.3467 90.44 30.4667 90.44 31.8C90.44 33.1333 89.96 34.28 89 35.24C88.0933 36.1467 86.9733 36.6 85.64 36.6H69.4V87.32C69.4 88.6533 68.8667 89.8 67.8 90.76C66.7867 91.6667 65.5867 92.12 64.2 92.12C62.8133 92.12 61.6133 91.6667 60.6 90.76C59.5867 89.8 59.08 88.6533 59.08 87.32V36.6H42.76C41.4267 36.6 40.28 36.1467 39.32 35.24C38.4133 34.28 37.96 33.1333 37.96 31.8C37.96 30.4667 38.4133 29.3467 39.32 28.44C40.28 27.48 41.4267 27 42.76 27H85.64Z" fill="black"/>
</svg>
