<svg width="128" height="128" viewBox="0 0 128 128" fill="none" xmlns="http://www.w3.org/2000/svg">
<rect width="128" height="128" fill="white"/>
<path d="M55.805 34C57.2217 34 58.4117 34.51 59.375 35.53C60.395 36.4933 60.905 37.6833 60.905 39.1C60.905 40.5167 60.395 41.735 59.375 42.755C58.4117 43.7183 57.2217 44.2 55.805 44.2H38.55V98.09C38.55 99.5067 37.9833 100.725 36.85 101.745C35.7733 102.708 34.4983 103.19 33.025 103.19C31.5517 103.19 30.2767 102.708 29.2 101.745C28.1233 100.725 27.585 99.5067 27.585 98.09V44.2H10.245C8.82833 44.2 7.61 43.7183 6.59 42.755C5.62667 41.735 5.145 40.5167 5.145 39.1C5.145 37.6833 5.62667 36.4933 6.59 35.53C7.61 34.51 8.82833 34 10.245 34H55.805ZM117.729 34C119.145 34 120.335 34.51 121.299 35.53C122.319 36.4933 122.829 37.6833 122.829 39.1C122.829 40.5167 122.319 41.735 121.299 42.755C120.335 43.7183 119.145 44.2 117.729 44.2H100.474V98.09C100.474 99.5067 99.9072 100.725 98.7738 101.745C97.6972 102.708 96.4222 103.19 94.9488 103.19C93.4755 103.19 92.2005 102.708 91.1238 101.745C90.0472 100.725 89.5088 99.5067 89.5088 98.09V44.2H72.1688C70.7522 44.2 69.5338 43.7183 68.5138 42.755C67.5505 41.735 67.0688 40.5167 67.0688 39.1C67.0688 37.6833 67.5505 36.4933 68.5138 35.53C69.5338 34.51 70.7522 34 72.1688 34H117.729Z" fill="black"/>
</svg>

