<svg width="482" height="101" viewBox="0 0 482 101" fill="none" xmlns="http://www.w3.org/2000/svg">
<path d="M54.9 17.7V26.1H33.1V87H23.4V26.1H1.6V17.7H54.9ZM120.132 87H110.832V35H120.132V87ZM115.432 25.6C113.765 25.6 112.332 25.0667 111.132 24C109.999 22.8667 109.432 21.3667 109.432 19.5C109.432 17.6333 109.999 16.1667 111.132 15.1C112.332 13.9667 113.765 13.4 115.432 13.4C117.099 13.4 118.499 13.9667 119.632 15.1C120.832 16.1667 121.432 17.6333 121.432 19.5C121.432 21.3667 120.832 22.8667 119.632 24C118.499 25.0667 117.099 25.6 115.432 25.6ZM151.725 88C145.992 87.8667 141.925 86.6333 139.525 84.3C137.125 81.9667 135.925 78.3333 135.925 73.4V11L145.225 9.4V71.9C145.225 73.4333 145.358 74.7 145.625 75.7C145.892 76.7 146.325 77.5 146.925 78.1C147.525 78.7 148.325 79.1667 149.325 79.5C150.325 79.7667 151.558 80 153.025 80.2L151.725 88ZM209.369 61C209.369 65.1333 208.769 68.8667 207.569 72.2C206.369 75.5333 204.669 78.4 202.469 80.8C200.335 83.2 197.769 85.0667 194.769 86.4C191.769 87.6667 188.502 88.3 184.969 88.3C181.435 88.3 178.169 87.6667 175.169 86.4C172.169 85.0667 169.569 83.2 167.369 80.8C165.235 78.4 163.569 75.5333 162.369 72.2C161.169 68.8667 160.569 65.1333 160.569 61C160.569 56.9333 161.169 53.2333 162.369 49.9C163.569 46.5 165.235 43.6 167.369 41.2C169.569 38.8 172.169 36.9667 175.169 35.7C178.169 34.3667 181.435 33.7 184.969 33.7C188.502 33.7 191.769 34.3667 194.769 35.7C197.769 36.9667 200.335 38.8 202.469 41.2C204.669 43.6 206.369 46.5 207.569 49.9C208.769 53.2333 209.369 56.9333 209.369 61ZM199.669 61C199.669 55.1333 198.335 50.5 195.669 47.1C193.069 43.6333 189.502 41.9 184.969 41.9C180.435 41.9 176.835 43.6333 174.169 47.1C171.569 50.5 170.269 55.1333 170.269 61C170.269 66.8667 171.569 71.5333 174.169 75C176.835 78.4 180.435 80.1 184.969 80.1C189.502 80.1 193.069 78.4 195.669 75C198.335 71.5333 199.669 66.8667 199.669 61ZM241.653 33.9C242.453 33.9 243.353 33.9667 244.353 34.1C245.42 34.1667 246.453 34.3 247.453 34.5C248.453 34.6333 249.353 34.8 250.153 35C251.02 35.1333 251.653 35.2667 252.053 35.4L250.453 43.5C249.72 43.2333 248.486 42.9333 246.753 42.6C245.086 42.2 242.92 42 240.253 42C238.52 42 236.786 42.2 235.053 42.6C233.386 42.9333 232.286 43.1667 231.753 43.3V87H222.453V37.2C224.653 36.4 227.386 35.6667 230.653 35C233.92 34.2667 237.586 33.9 241.653 33.9ZM331.072 17.7V26.1H309.272V87H299.572V26.1H277.772V17.7H331.072ZM402.604 88C396.871 87.8667 392.804 86.6333 390.404 84.3C388.004 81.9667 386.804 78.3333 386.804 73.4V11L396.104 9.4V71.9C396.104 73.4333 396.237 74.7 396.504 75.7C396.771 76.7 397.204 77.5 397.804 78.1C398.404 78.7 399.204 79.1667 400.204 79.5C401.204 79.7667 402.437 80 403.904 80.2L402.604 88ZM433.148 58.4C435.148 59.9333 437.248 61.8333 439.448 64.1C441.714 66.3667 443.914 68.8333 446.048 71.5C448.248 74.1 450.314 76.7667 452.248 79.5C454.181 82.1667 455.814 84.6667 457.148 87H446.248C444.848 84.6667 443.214 82.3 441.348 79.9C439.548 77.4333 437.648 75.1 435.648 72.9C433.648 70.6333 431.614 68.5667 429.548 66.7C427.481 64.8333 425.514 63.2667 423.648 62V87H414.348V11L423.648 9.4V56.8C425.248 55.2 427.014 53.4333 428.948 51.5C430.881 49.5667 432.781 47.6 434.648 45.6C436.514 43.6 438.281 41.7 439.948 39.9C441.614 38.0333 443.048 36.4 444.248 35H455.148C453.614 36.6667 451.948 38.5 450.148 40.5C448.348 42.5 446.481 44.5333 444.548 46.6C442.614 48.6 440.648 50.6333 438.648 52.7C436.714 54.7 434.881 56.6 433.148 58.4Z" fill="black"/>
<path d="M70.8466 82.5195C60.438 82.5195 52 74.1111 52 63.7389C52 53.3667 60.438 44.9583 70.8466 44.9583C81.2553 44.9583 89.6932 53.3667 89.6932 63.7389C89.6932 67.1596 88.7755 70.3668 87.1719 73.1292L92.8936 85L80.2699 80.0071C77.4978 81.6049 74.2793 82.5195 70.8466 82.5195Z" stroke="#4169E1" stroke-width="7.30737" stroke-linecap="round" stroke-linejoin="round"/>
<path d="M347.847 82.5612C337.438 82.5612 329 74.1528 329 63.7806C329 53.4084 337.438 45 347.847 45C358.255 45 366.693 53.4084 366.693 63.7806C366.693 67.2013 365.775 70.4085 364.172 73.1709L369.894 85.0417L357.27 80.0487C354.498 81.6466 351.279 82.5612 347.847 82.5612Z" stroke="#4169E1" stroke-width="7.30737" stroke-linecap="round" stroke-linejoin="round"/>
</svg>
