<svg width="515" height="101" viewBox="0 0 515 101" fill="none" xmlns="http://www.w3.org/2000/svg">
<path d="M73.2783 76.3363C62.079 76.3363 53 67.3066 53 56.1681C53 45.0296 62.079 36 73.2783 36C84.4776 36 93.5565 45.0296 93.5565 56.1681C93.5565 59.8416 92.569 63.2857 90.8437 66.2522L97 79L83.4174 73.6382C80.4347 75.3541 76.9717 76.3363 73.2783 76.3363Z" stroke="#464646" stroke-width="5" stroke-linecap="round" stroke-linejoin="round"/>
<path d="M368.532 76.1681C357.333 76.1681 348.254 67.1385 348.254 56C348.254 44.8614 357.333 35.8319 368.532 35.8319C379.731 35.8319 388.81 44.8614 388.81 56C388.81 59.6734 387.823 63.1175 386.097 66.0841L392.254 78.8319L378.671 73.4701C375.688 75.186 372.225 76.1681 368.532 76.1681Z" stroke="#464646" stroke-width="5" stroke-linecap="round" stroke-linejoin="round"/>
<path d="M422 82C419.467 82 417.2 81.3 415.2 79.9C413.267 78.5 411.733 76.5667 410.6 74.1C409.533 71.6333 409 68.7667 409 65.5V6.9C409 5.96666 409.267 5.23333 409.8 4.69999C410.4 4.16666 411.133 3.9 412 3.9C412.933 3.9 413.667 4.16666 414.2 4.69999C414.733 5.23333 415 5.96666 415 6.9V65.5C415 68.5667 415.633 71.1 416.9 73.1C418.233 75.0333 419.933 76 422 76H424.5C425.233 76 425.833 76.2667 426.3 76.8C426.767 77.3333 427 78.0667 427 79C427 79.8667 426.733 80.6 426.2 81.2C425.667 81.7333 424.933 82 424 82H422ZM441.953 64.9L438.353 60.9L474.953 27.6C475.62 27.0667 476.253 26.8 476.853 26.8C477.52 26.8 478.153 27.1333 478.753 27.8C479.353 28.4667 479.653 29.1333 479.653 29.8C479.653 30.4667 479.32 31.0667 478.653 31.6L441.953 64.9ZM440.953 82C440.086 82 439.353 81.7333 438.753 81.2C438.22 80.6 437.953 79.8667 437.953 79V6.9C437.953 5.96666 438.22 5.23333 438.753 4.69999C439.353 4.16666 440.086 3.9 440.953 3.9C441.886 3.9 442.62 4.16666 443.153 4.69999C443.686 5.23333 443.953 5.96666 443.953 6.9V79C443.953 79.8667 443.686 80.6 443.153 81.2C442.62 81.7333 441.886 82 440.953 82ZM478.853 81.5C478.186 82.1 477.486 82.3333 476.753 82.2C476.086 82.1333 475.486 81.7667 474.953 81.1L451.253 52.1L455.553 48.6L479.253 77.6C479.786 78.2667 480.02 78.9333 479.953 79.6C479.953 80.2667 479.586 80.9 478.853 81.5Z" fill="#464646"/>
<path d="M117 82C116.133 82 115.4 81.7333 114.8 81.2C114.267 80.6 114 79.8667 114 79V30.3C114 29.3667 114.267 28.6333 114.8 28.1C115.4 27.5667 116.133 27.3 117 27.3C117.933 27.3 118.667 27.5667 119.2 28.1C119.733 28.6333 120 29.3667 120 30.3V79C120 79.8667 119.733 80.6 119.2 81.2C118.667 81.7333 117.933 82 117 82ZM116.9 15.8C115.633 15.8 114.533 15.3667 113.6 14.5C112.733 13.5667 112.3 12.4333 112.3 11.1C112.3 9.56666 112.767 8.43333 113.7 7.7C114.7 6.9 115.8 6.49999 117 6.49999C118.133 6.49999 119.167 6.9 120.1 7.7C121.1 8.43333 121.6 9.56666 121.6 11.1C121.6 12.4333 121.133 13.5667 120.2 14.5C119.333 15.3667 118.233 15.8 116.9 15.8ZM151.027 82C148.494 82 146.227 81.3 144.227 79.9C142.294 78.5 140.761 76.5667 139.627 74.1C138.561 71.6333 138.027 68.7667 138.027 65.5V6.9C138.027 5.96666 138.294 5.23333 138.827 4.69999C139.427 4.16666 140.161 3.9 141.027 3.9C141.961 3.9 142.694 4.16666 143.227 4.69999C143.761 5.23333 144.027 5.96666 144.027 6.9V65.5C144.027 68.5667 144.661 71.1 145.927 73.1C147.261 75.0333 148.961 76 151.027 76H153.527C154.261 76 154.861 76.2667 155.327 76.8C155.794 77.3333 156.027 78.0667 156.027 79C156.027 79.8667 155.761 80.6 155.227 81.2C154.694 81.7333 153.961 82 153.027 82H151.027ZM188.953 82.6C183.62 82.6 178.82 81.4 174.553 79C170.353 76.5333 167.02 73.2 164.553 69C162.153 64.7333 160.953 59.9667 160.953 54.7C160.953 49.3667 162.153 44.6 164.553 40.4C167.02 36.1333 170.353 32.8 174.553 30.4C178.82 27.9333 183.62 26.7 188.953 26.7C194.286 26.7 199.053 27.9333 203.253 30.4C207.453 32.8 210.753 36.1333 213.153 40.4C215.62 44.6 216.853 49.3667 216.853 54.7C216.853 59.9667 215.62 64.7333 213.153 69C210.753 73.2 207.453 76.5333 203.253 79C199.053 81.4 194.286 82.6 188.953 82.6ZM188.953 77C193.153 77 196.886 76.0333 200.153 74.1C203.486 72.1 206.086 69.4333 207.953 66.1C209.886 62.7 210.853 58.8667 210.853 54.6C210.853 50.4 209.886 46.6333 207.953 43.3C206.086 39.9 203.486 37.2333 200.153 35.3C196.886 33.3 193.153 32.3 188.953 32.3C184.82 32.3 181.086 33.3 177.753 35.3C174.42 37.2333 171.786 39.9 169.853 43.3C167.92 46.6333 166.953 50.4333 166.953 54.7C166.953 58.9 167.92 62.7 169.853 66.1C171.786 69.4333 174.42 72.1 177.753 74.1C181.086 76.0333 184.82 77 188.953 77ZM233.824 48.6C234.224 44.3333 235.391 40.5667 237.324 37.3C239.258 33.9667 241.758 31.3667 244.824 29.5C247.891 27.6333 251.291 26.7 255.024 26.7C257.558 26.7 259.524 27 260.924 27.6C262.324 28.2 262.858 29.2667 262.524 30.8C262.324 31.8 261.858 32.4 261.124 32.6C260.391 32.8 259.491 32.8333 258.424 32.7C257.424 32.5 256.291 32.4 255.024 32.4C251.691 32.4 248.724 33.1 246.124 34.5C243.524 35.9 241.491 37.8333 240.024 40.3C238.558 42.7 237.824 45.4667 237.824 48.6H233.824ZM234.824 82C233.958 82 233.224 81.7333 232.624 81.2C232.091 80.6 231.824 79.8667 231.824 79V30.3C231.824 29.3667 232.091 28.6333 232.624 28.1C233.224 27.5667 233.958 27.3 234.824 27.3C235.758 27.3 236.491 27.5667 237.024 28.1C237.558 28.6333 237.824 29.3667 237.824 30.3V79C237.824 79.8667 237.558 80.6 237.024 81.2C236.491 81.7333 235.758 82 234.824 82Z" fill="black" fill-opacity="0.74"/>
<path d="M328.469 82C327.602 82 326.869 81.7333 326.269 81.2C325.735 80.6 325.469 79.8667 325.469 79V3.9H331.469V79C331.469 79.8667 331.169 80.6 330.569 81.2C330.035 81.7333 329.335 82 328.469 82ZM300.169 9.29999C299.369 9.29999 298.702 9.06666 298.169 8.6C297.702 8.06666 297.469 7.4 297.469 6.6C297.469 5.8 297.702 5.16666 298.169 4.69999C298.702 4.16666 299.369 3.9 300.169 3.9H356.769C357.569 3.9 358.202 4.16666 358.669 4.69999C359.202 5.16666 359.469 5.8 359.469 6.6C359.469 7.4 359.202 8.06666 358.669 8.6C358.202 9.06666 357.569 9.29999 356.769 9.29999H300.169Z" fill="#464646"/>
<path d="M32.5 82C31.6333 82 30.9 81.7333 30.3 81.2C29.7667 80.6 29.5 79.8667 29.5 79V3.9H35.5V79C35.5 79.8667 35.2 80.6 34.6 81.2C34.0667 81.7333 33.3667 82 32.5 82ZM4.2 9.29999C3.4 9.29999 2.73333 9.06666 2.2 8.6C1.73333 8.06666 1.5 7.4 1.5 6.6C1.5 5.8 1.73333 5.16666 2.2 4.69999C2.73333 4.16666 3.4 3.9 4.2 3.9H60.8C61.6 3.9 62.2333 4.16666 62.7 4.69999C63.2333 5.16666 63.5 5.8 63.5 6.6C63.5 7.4 63.2333 8.06666 62.7 8.6C62.2333 9.06666 61.6 9.29999 60.8 9.29999H4.2Z" fill="#464646"/>
</svg>
